<?xml version="1.0" encoding="UTF-8" standalone="no"?>
<svg xmlns="http://www.w3.org/2000/svg"
     version="1.1"
     baseProfile="tiny"
     width="400"
     height="400"
     viewBox="0 0 400 400"
     xml:space="preserve">
  <title>This AI Now Logo</title>
<path d="M-63 113c-2 0-2-1-2-2l4-14 4-1h2v-6l-1-1c-2 0-2-1-2-3l-1-1v1c-2 0-2 2-2 5-1 6-2 9-4 11s-3 3-6 3c-4 0-7-3-9-7-2-3-2-5-2-9l1-9 1-2-1-2c-4-8-4-17-1-24a26 26 0 0 1 25-16l7 1c6 2 9 4 13 9 6 7 9 12 10 15v8c-2 6-6 10-12 12l-1 1h7l4 1h9l2 3-1 2v2l1 1v5h2a86 86 0 0 1 5 0l5 1-1 8-2 7c-1 1-4 2-6 1h-7l-1-1-1 1h-39zm38-3c1 0 2-2 2-5l-1-5-4-2-4 2-1 5c0 3 1 5 3 6l5-1zm-4-2-1-4 1-3h3v6l-2 1h-1zm-31 3 1-2v-1h4v1l2 2c2 0 2 0 0-6l-2-6h-3a89 89 0 0 0-4 12h2zm2-6 1-2v-2l1 2v3h-1l-1-1zm10 6 1-6-1-6h-3v6l1 6h2zm7 0v-7l2 3 3 4c2 0 2 0 2-6v-6h-3v7l-2-4-2-3h-3v6l1 6h2zm24 0 1-4 1-4v4l1 4h3l3-12h-1c-2-1-2 0-3 3v4l-1-3-1-4h-3v4l-1 3-1-3c0-4-1-5-2-5l-1 1 1 6 1 6h3zm-51-11 3-3-1-11V71c2-7 5-12 11-16 8-6 17-6 20 0l1 3c0 5-4 8-15 13l-10 6c-3 2-4 5-4 7v1l1-1c3-3 6-4 12-4 10-1 15-3 18-8 4-5 4-11-1-17l-10-11c-4-3-8-5-13-5a24 24 0 0 0-18 7l-4 5c-2 4-3 6-3 11 0 6 1 8 8 21l5 13v2l-2 1c-3-1-7-7-7-14l-1-2v10a12 12 0 0 0 3 6c2 2 5 3 7 1zm0-29v-7l6-9c3-3 7-5 11-6l5-1-2 1c-5 1-9 3-13 7s-6 8-7 17v-2zm-3 2v-4c-1-9 4-17 12-21l9-2h2-3c-9 3-14 7-17 13l-3 11v3zm-2 0-1-2V59l5-8 7-6 8-2c3 0 4 0 2 1l-12 4c-5 3-8 8-9 14v11zm-4-2-1-9c0-4 0-6 2-9 3-6 9-10 17-12h5-1l-8 3c-10 4-15 12-14 22a41 41 0 0 0 1 6l-1-1zm27 26h1V87h3v-3h-10v3h3v5l1 4 1 1h1zm8 0v-5h4v5l3-1V84h-3v5h-4v-5h-3v12l1 1h2zm11-1V85l-1-1-1 1v11h2zm9 0c2-1 2-3 1-5 0-1-1-2-3-2s-2-1-2-2h4l1-1-1-2-5 1c-2 1-3 3-2 5l4 2 2 1v1h-5l-1 1 1 1h6zm-36-25 7-4 9-6c3-2 3-4 1-5-3 0-8 1-12 4s-9 9-9 13l-1 1 2-1 3-2z" style="fill:#00aeef;fill-opacity:1" transform="translate(150 67)"/><path d="M-63 113c-2 0-2-1-2-2l4-13 4-2h1l1-3v-3l-1-1c-1 0-2-1-2-3l-1-1-2 3v4c-1 8-4 13-10 13-5 0-9-5-11-11-1-4 0-10 2-14v-2l-1-3-2-6-1-7 1-7c3-10 10-16 20-18h13c4 1 8 3 11 6l12 16 1 6c0 4-2 8-5 11l-7 5c-4 1-3 1 3 1l6 1h9c2 1 2 3 1 5v1c1 2 2 4 1 6v1h2a220 220 0 0 1 5 0l5 1-1 7-2 7c0 2-3 3-6 2h-2c-1 1-4 1-5-1l-2 1h-32l-1-1c-2 1-4 2-6 1zm37-2 3-3v-4c0-4-2-6-5-6s-5 2-5 6c0 5 3 8 7 7zm-3-3v-6c0-2 2-1 3 1s0 5-1 5h-2zm-30 3v-3h4v1l2 2c2 0 2 0 0-6l-2-6h-3c-1 1-5 11-4 12h3zm1-6 1-3 1 1v2l-1 1-1-1zm10 5 1-6v-5h-1a2 2 0 0 0-2 0v11l1 1 1-1zm7 1v-7l2 3c1 4 2 4 3 4 2 0 2 0 2-6v-6h-2l-1 3v4l-2-4-2-3h-3v11l3 1zm24-1 1-3 1-3v3l1 4h3a108 108 0 0 0 2-12h-2l-1 3v4l-1-4-1-3h-2l-1 4-1 2-2-6h-2l2 12 3-1zm-51-9 2-3 1-5v-7c-2-9-1-15 1-21 3-6 6-9 12-12 5-2 10-3 14-1s5 7 1 12l-12 7-10 6c-2 2-4 4-4 8l1-1c3-3 6-4 12-4 9-1 13-3 17-6 5-5 5-11 1-18l-14-14-7-3-15 2c-8 4-13 12-13 21 0 5 1 8 7 21 6 11 7 14 6 15h-3c-3-2-6-7-6-13l-1-2v6c0 4 0 7 3 9 2 3 5 4 7 3zm0-30c0-6 1-10 4-14l7-6 10-3-1 1c-7 2-12 5-16 11l-4 11-1 3zm-3 1V62c3-9 11-16 21-16l2-1-3 1c-10 3-16 9-19 17l-1 6v3zm-3-1c-3-14 5-26 20-28h3l-3 1c-7 2-12 5-15 9-4 5-5 10-5 17l1 3-1-2zm-3-1-1-9 1-6 4-7c4-4 10-6 17-7h2l-3 1c-12 2-18 9-20 19l1 9c0 2 0 2-1 0zm27 27 1-5v-5h1c2 0 2 0 2-2v-1h-5c-5 0-5 0-5 2l2 1h1v5l1 5h2zm8 0v-5h4v5h2l1-1V84h-1a3 3 0 0 0-1 0l-1 3v2h-4v-5h-3v13h3zm11 0 1-7v-6h-3l-1 6 1 7h2zm9-1c1 0 2-1 2-3s-1-3-4-4l-2-1c0-1 1-2 3-1l2-1v-1c0-1-4-2-6-1-2 2-3 4-2 6l4 2c2 0 2 1 2 2h-3l-3 1 1 1h6zm-39-23 10-6c6-3 8-4 9-6 4-3 3-5-2-5-7 1-13 6-17 13l-2 5 2-1z" style="fill:#00aeef;fill-opacity:1" transform="translate(150 67)"/><path d="M-62 113h-1l-2-2 4-13 4-2h2v-6l-1-1c-1 0-2-1-2-3h-1c-2 1-2 2-2 5-1 7-3 11-6 13l-4 1c-3 0-4-1-7-4s-4-6-4-12l1-9 1-2-1-2-3-15 2-10c4-7 11-12 19-14h13c4 1 8 3 11 6l8 10 4 8c2 7-2 15-9 18l-3 2-1 1h6l5 1h2l6-1c2 1 2 2 2 4v4l1 6h6c4-1 6 0 6 3l-3 13-1 1h-6c-1 1-5 0-6-1h-2c-1 2-5 2-8 1h-18a4 4 0 0 0-2 0h-4l-1-1h-1c-1 1-3 2-4 1zm37-2 2-4c1-3 0-7-2-8l-3-1-3 1c-1 1-2 2-2 6l1 4c1 2 4 3 7 2zm-4-3-1-3c0-3 1-5 3-4l1 4v3h-3zm-30 3v-3h4v1l1 2 3-1-4-11h-3l-4 12h3zm1-5 1-4 1 2v2h-2zm10 5 1-6-1-6-1-1-1 1v12h2zm7-4v-3l2 3 2 3 3 1V99h-3v7l-2-4-1-3-2-1c-2 0-2 0-2 7v6h3zm24 4 1-4 1-3v3l1 4h3l2-12h-2l-1 3v3l-1-3-1-3h-2l-1 3a211 211 0 0 1-1 4l-1-3v-4h-3l1 5 1 6 1 1h2zm-51-10c3-2 4-5 3-15-2-10-1-16 2-22 3-8 13-14 21-13 7 0 10 7 5 13l-16 9-9 7-1 5 1-1c3-3 6-4 11-4 7-1 10-1 14-3 7-4 10-10 7-17l-2-4a79 79 0 0 0-14-14l-9-3c-11 0-19 4-23 13-2 3-3 5-3 10 0 6 1 9 8 22l5 13-1 2c-2 0-5-3-7-7a23 23 0 0 1-1-8c-1-1-1-1-1 1-2 6 0 12 4 15l6 1zm0-31c0-8 4-15 12-19a26 26 0 0 1 9-3c-6 2-11 4-14 8-4 4-6 8-7 14l-1 3zm-3 2a23 23 0 0 1 2-14c3-7 10-11 17-12h1c-6 2-10 4-13 8-3 3-5 5-6 9a32 32 0 0 0-1 10v-1zm-3-1V58c3-8 11-14 20-14l2-1-2 1c-8 2-13 5-16 10-3 4-4 11-4 16v1zm-3-2V56c1-4 2-6 5-8l5-4 5-2 7-1-2 1c-5 1-10 3-13 6-3 2-5 6-6 10a34 34 0 0 0-1 13v-2zm55 27a4 4 0 0 0 2-3c0-2-1-3-4-4l-2-1c0-1 1-2 3-1l2-1v-1l-3-1h-3c-2 2-3 4-2 6l3 1 3 2-5 1h-1v1l1 1h6zm-28 0 1-4v-5h1c2 0 2 0 2-2l-5-1c-5 0-5 0-5 2l2 1h1v5l1 5 2-1zm8 1v-5h4v2l1 3 2-1V84h-1a2 2 0 0 0-2 0v5h-4v-3l-1-2a2 2 0 0 0-1 0h-1v13h3zm11-1 1-6-1-6a2 2 0 0 0-2 0l-1 6 1 6 1 1 1-1zm-27-25 8-4 9-7c1-1 2-2 1-3-1-2-9 0-14 4-4 3-8 9-9 13v1l2-1 3-3z" style="fill:#00aeef;fill-opacity:1" transform="translate(150 67)"/><path d="M-30 113h-26l-1-1-1 1h-3l-3-1-1-1a270 270 0 0 1 5-14l3-1h2v-3l-1-4c-1 0-2-1-2-3h-2l-2 6-2 9c-4 6-12 4-16-3-2-2-2-4-2-8l1-10 1-2-1-3c-4-10-4-20 2-28 5-7 16-12 25-10 6 0 10 2 14 5l12 17c3 5 2 10-2 16l-8 6-2 1h7l4 1h9c1 1 2 3 1 5v2l1 6h6c3-1 6 1 6 2l-3 14-1 1h-12l-1-1-1 1h-6zm-29-2v-2l1-1h3v1l1 2 3-1-4-11h-3c-1 1-5 11-4 12h3zm1-6 1-2v-1l1 1-1 3-1-1zm17 5v-6l2 3 2 4h3V99l-1-1c-2 0-2 0-2 4v3l-2-3-1-3h-4v12h1l2-1zm15 1 2-1c2-2 2-8 0-10-1-2-4-2-6-1l-3 3v6l3 3h4zm-3-3v-7h1c1 0 2 1 2 3 1 3-1 6-3 4zm12 2 1-3c1-3 1-3 1 0 1 4 1 4 3 4h2a103 103 0 0 0 1-12h-2l-1 2c0 5 0 5-1 1l-1-3h-3l-1 4v3-2l-1-4v-1l-2-1-1 1 2 11h3zm-30-5c0-7 0-7-2-7s-2 0-2 7l1 6h3zm-21-5 2-2 1-13c-2-11-1-17 3-23 3-5 8-8 14-10l9-1c3 1 5 4 5 7 0 5-4 8-15 13l-11 6c-2 2-3 5-3 7l-1 2 2-2 6-3 6-1c9-1 13-2 17-6 3-3 4-5 4-9 0-6-2-10-11-19l-9-6-7-1-6 1c-8 1-14 6-17 12l-2 9c0 7 1 9 7 21l6 14c0 3-1 3-3 2-3-2-6-7-6-12l-1-3v6c0 4 0 6 2 8 2 4 6 5 8 3zm0-30c0-8 4-15 12-19l8-3c2 0 1 0-1 1-11 3-17 11-19 22l-1 2zm-6 0V59l4-8c4-4 10-7 16-7l2-1-3 1c-10 3-16 8-18 17l-1 6v4-1zm3-3 1-6c1-3 2-6 5-8 3-4 9-7 14-7h2-3c-8 3-13 7-16 13l-3 8zm-6 1-1-10a23 23 0 0 1 18-16h1c-4 1-8 3-11 6-4 3-6 7-7 11v10-1zm54 29c2-1 3-3 3-5s-2-2-4-3l-2-2h4l1-1c1-1 0-2-3-2s-5 1-5 4c0 2 1 3 3 4l3 1-4 1h-2v2l6 1zm-27 0 1-5v-5h3v-3h-10v3h3v5l1 5h2zm8 0v-5h4v5h3v-6l-1-7h-2v5h-4v-2l-1-3c-2 0-2 0-2 6v7h3zm11 0 1-6-1-7h-2v13h2zm-27-26 8-4 9-6c5-5-1-7-9-3-4 2-8 6-11 11l-2 5 2-1a61 61 0 0 1 3-2z" style="fill:#00aeef;fill-opacity:1" transform="translate(150 67)"/><path d="M-62 113a12 12 0 0 1 2 0h-2zm7 0h2-2zm6 0h1-1s-1 0 0 0zm6 0a8 8 0 0 1 1 0h-1c-1 0-1 0 0 0zm6 0h2-2zm7 0a4 4 0 0 1 1 0c1 0 0 0 0 0h-1zm3 0h1-1zm7 0h1-1zm2 0 2-1 1 1h-3zm4 0h3-3zm-37 0h1-1c-1 0 0 0 0 0zm5 0 1-1-1 1h-1 1zm7 0v-1 1h1-1zm7 0-1-1c0 1 0 1 0 0h1l1 1h-1zm10-1h-1 1l1 1-1-1zm-43 0h1v1l-1-1zm7 1zm2-1c-1 0-1 0 0 0v1-1zm32 0c1 0 1 0 0 0v1-1zm14 1v-1h1l-1 1zm-19-2c-1 0-1 0 0 0zm2 0c1 0 0 0 0 0zm-35 0-1-1h1v1zm14 0 1-2v-3 2l-1 3zm4 0V99v6l1 6h-1zm13 0h1-1zm14 0zm3 0c0-1 0-1 0 0zm3 0 1-1-1 1zm2 0c0-1 0-1 0 0zm-29 0v-1 1zm6-1-1-2c0-1 0 0 0 0l1 2 1 1-1-1zm-2-5v-3a123 123 0 0 1 0 3zm13 5v-1 1zm5 0v-1 1zm-43-1v1-1zm44 0h1v1l-1-1zm6 0v1-1zm-1 0c0 1 0 0 0 0zm-42 0h1-1zm12-1v1-1zm19 0s0-1 0 0v1-1zm5 0v1-1zm8 0zm-32-1h1v1l-1-1zm11 1v-1 1zm2 0s1 0 0 0zm12 0c0-1 0-1 0 0zm5 0c0-1 0-1 0 0zm-6-1s0-1 0 0zm8 0c0-1 0-1 0 0zm-25-1v1-1zm3 0h1v1l-1-1zm9 0v1-1zm12 0v1-1zm-6 0v1-1zm-32-1v-1 2-1zm25 0v-1 2-1zm-18 1v-1 1zm32 0v-1 1zm-49 0 1-1-1 1c-1 0-1 0 0 0zm41 0 1-1v-1 2h-1zm7-1c0 1 0 0 0 0zm-13 0v-1 1zm4 0v-1 1zm5 0 1-1v-1 2h-1zm5-1h1l-1 1v-1zm-64 0s0 1 0 0zm3 0zm12 0c0 1 0 0 0 0zm27-1h1v1l-1-1zm4 0v1-1zm17 1v-1 1zm-67-1-1-1 1 1h1l1 1-2-1zm13 1 1-1-1 1zm30-1s0-1 0 0v1-1zm11 0v1-1zm4 0v1-1zm0 0v1-1zm-47-1 1-1-1 1-1 1 1-1zm58 1zm-46 0a4 4 0 0 0-1-1h1v1zm40 0c0-1 0-1 0 0zm-34 0v-1 1zm8-1h1v1l-1-1zm30 0c1 0 1 0 0 0 0 1 0 0 0 0zm-20 0 1-1-1 1zm2 0v-1l1 1h-1zm4 0c1 0 0 0 0 0zm11 0s0-1 0 0zm-66-1-1-2 1 2c1 1 1 2 0 0zm45 1v-1 1zm11 0v-1 1zm15 0c0-1 0-1 0 0zm-40-2-1-2 1 2v2zm28 1v1-1zm6 0v1-1zm-58 0c-1 0-1 0 0 0zm2 0zm1 0zm4-1 1-1-1 2v-1zm47 1v-1 1zm9 0v-1 1zm-4-1v1-1zm5 0v1-1zm-60 0 1-1v1l-1 1zm13 0c-1-1-1-1 0 0 0 1 0 1 0 0zm14 0c0-1 0-1 0 0h1-1zm18 0s0-1 0 0zm3 0s0-1 0 0zm6 0v-1 1zm-62-1-1-1 1 1 1 1-1-1zm16 1 1-2c1 0 1 0 0 0l-1 1v1zm51-1v1-1zm-17 0h1-1zm18 0 1-1v1h-1zm-73-1-1-1 1 1 1 1-1-1zm68 1h1c0-1 0 0 0 0h-1zm-38 0v-1 1c-1 0-1 0 0 0zm28 0 1-1-1 1c-1 0-1 0 0 0zm2 0v-1l1 1h-1zm-49 0c0-1 0-1 0 0-1 0-1 0 0 0zm28-1h1-1zm15 0a1 1 0 0 1 1 0h-1zm-45 0-2-2 2 2h1-1zm15 0h1-1zm13 0c1 0 1 0 0 0zm7 0s-1 0 0 0zm20 0zm-13 0h2-2zm-36 0v-1 1zm-12-1v-1 1c1 1 1 1 0 0zm9 0v-1 1c0 1 0 0 0 0zm8 0 1-1v1a12 12 0 0 0-1 0zm53 0c0-1 0-1 0 0zm-19 0h2-2zm-26 0h1-1zm1 0h1-1zm8 0h1-1zm5 0h1-1zm1 0h1-1zm4 0h1-1zm1 0h1-1zm-30-1v1-1zm9 1V87h-3 3v5a279 279 0 0 1 0 5zm18-7v-6 13-7zm1 7v-1 1zm3-7 1-6a102 102 0 0 1-1 6zm9 7v-1 1zm-36-1h2-2zm9-4v-5h3-3v9zm7 2v-1 2-1zm21 2c0-1 0-1 0 0zm4 0h2-2zm5 0h1-1zm3 0h1-1zm-56-3v-2a32 32 0 0 1 0 2zm36 2c0-1 0-1 0 0zm-52 0c0 1 0 0 0 0zm19 0c0 1 0 0 0 0zm-12 0-1-1 1 1s0 1 0 0zm19-3v-1 3-2zm-27 2c1 0 0 0 0 0zm62 0zm2 0s0-1 0 0zm-60 0c0-1 0-1 0 0zm51 0h1-1zm3 0v-1h1l-1 1zm-45-1s0-1 0 0v1-1zm7-1v-1 2-1zm34 1c-1 0-1 0 0 0 1 1 1 1 0 0zm-54 0s0-1 0 0zm3 0h1-1zm61-1v-1 1zm-52-1 1 1-1-1zm-12-2v-1 2-1zm3 0v-1 2-1zm59 2a1 1 0 0 1-1-1h1v1zm1-1c0-1 0-1 0 0 0 0 1 0 0 0zm-3-1h-1 1c1 1 1 1 0 0zm-49-1c-1-2-1-2 0 0l1 1-1-1zm15 1h1-1zm27 0zm-28 0-1-1 1 1h1-1zm-20-1v1-1zm15 0h1v1l-1-1zm43 0c0-1 0-1 0 0l-1 1zm-46 0s0-1 0 0zm23-2v-2 4h2l2 1h-4zm-35 1v1-1zm16 1v-1c0-1 0-1 0 0v1zm35 0 1-1c1 0 1 0 0 0l-1 1zm5-1c0 1 0 1 0 0zm-37-1s0-1 0 0a4 4 0 0 1 0 1v-1zm29 1zm5 0h1-1zm5-1v-1a4 4 0 0 1 0 2v-1zm-46 0v1-1zm9-1a4 4 0 0 1 0 1v-1zm10 0a4 4 0 0 1 0 1v-1zm25 1 1-1v1h-1zm-56-1v-1a8 8 0 0 1 0 2v-1zm-5 0v1-1zm3 0h1v1l-1-1zm6 0v-2 2l1 1-1-1zm44 1 1-1 1-1-1 1-1 1zm-35-1v-1 1zm2-1 1-1-1 1-1 1zm-4 0h1-1zm47 0-1-1 1 1v1-1zm-59-1v1-1zm25 1a74 74 0 0 1 4 0h-4zm9 0a4 4 0 0 1 1 0c1 0 0 0 0 0h-1zm7 0a4 4 0 0 1 1 0h-1c-1 0-1 0 0 0zm4 0a4 4 0 0 1 2 0h-2zm7 0h1-1zm3 0h1-1zm-40-1v1-1zm34 0h1c1-1 2-1 0 0h-1zm-37-1v-1a4 4 0 0 1 0 1c0 1 0 0 0 0zm26 0h2-2zm4 0h1l-1 1v-1zm2 0h1s0 1 0 0h-1zm3 0h1v1l-1-1zm9 0v1-1zm-3 0h2-2zm-34 0h1-1zm18 0v-1h1l-1 1zm-17-1h1-1zm-5 0h1c0-1 0 0 0 0h-1zm7 0c-1 0-1 0 0 0zm1 0c0-1 0-1 0 0 0 0-1 0 0 0zm1-1c1 0 0 0 0 0zm2 0h2-2zm-14-3v-1a27 27 0 0 1 0 3v-2zm18 3h1-1s-1 0 0 0zm-14 0 1-1-1 1zm16-1h1l-1 1v-1zm2 0c1 0 0 0 0 0zm1 0h1-1zm-37 0v-1h1l-1 1zm38 0h1-1zm-18-2 2-1-2 1-1 2 1-2zm-16 1zm42 0 1-1h1l-2 1zm-4-1 2-1-2 2v-1zm7-1v-1l1-1-1 1v1zm-27 0v-1c1 0 1 0 0 0v1zm-20-1c0-1 0-1 0 0l1 1-1-1zm44 0-1 1 1-1zm-22-1h1-1c0 1 0 1 0 0zm23 0 1-1-1 1v1-1zm-29 0 3-2-2 1-1 1zm32 0h1c0-1 0-1 0 0h-1zm-36-1v-1 1c0 1 0 0 0 0zm11 1v-1h1l-1 1zm-24-1c0-1 0-1 0 0h1-1zm50 0 1-1-1 1zm-2-1v-1l-1 2 1-1zm-51 0c0-1 0-1 0 0zm3 0v-1 1zm51 0v-1 1zm-23-1h1l-1 1v-1zm-15 0h1-1zm-8 0c0-1 0-1 0 0zm24 0h1-1zm20-1v-1l-1 2 1-1zm-41-2v-2 5zm14 2h1-1zm-11-1v-1 1c0 1 0 1 0 0zm3 1c0-1 0-1 0 0zm17 0zm-29-2v-2 4-2zm3 0v-6 8zm19 1h1-1s0 1 0 0zm28 0v-1 1zm-56-1v1-1zm22 0 1-1v1l-1 1v-1zm-19-1v1-1zm15 1v-1h1l-1 1zm38 0v-1 1zm-56-1v1-1zm31 1 1-1 2-1-2 1-1 1zm-16-1s0-1 0 0h1-1zm26 0 1-1h1l-2 1zm13 0v-1 1zm-52-1c1 0 1 0 0 0 0 1 0 1 0 0zm13 0v-1l1 1h-1zm-16-1h1v1l-1-1zm6 0v1-1zm52 0v-1 2-1zm-38 1v-1l1-1-1 1v1zm25 0a86 86 0 0 1 2-2v-1a19 19 0 0 1-2 2v1zm-20 0v-1h1l-1 1zm-12-2v-1 1l1 1-1-1zm24 1 1-1-1 1zm-34-1s0-1 0 0 0 1 0 0zm14 1v-1c1-1 1 0 0 0v1zm9-1 2-2 2-2-2 3-2 1zm12 0h2-2zm-24 0v-1 1zm7-1 1-1-1 1v1-1zm-15-1v-1a8 8 0 0 1 0 2v-1zm49 1v1-1zm-55-1v-1 2-1zm10 1s0-1 0 0zm30 0 2-1-1 1h-1zm17 0v-1 1zm-50-1v-1 1zm3-1h1v1l-1-1zm47 0v1-1zm-14 0 1-1-1 1-1 1zm-33 0c0-1 0-1 0 0zm44 0h1-1zm-5 0v-1 1zm-26-1h1l-1 1v-1zm7 0h1-1zm-23 0v-1 1zm-4-1c0-1 0-1 0 0s0 1 0 0zm7 0v1-1zm-4 0s0-1 0 0zm9 0h1c0-1 0-1 0 0h-1zm-15-1h1v1l-1-1zm14 1 1-1v1h-1zm35-1 1-1v2l-1-1zm-29 1v-1l1 1h-1zm4 0 1-1 1-1-1 1-1 1zm-17-1v1-1zm26 0v1-1zm12 0v-1 1c0 1 0 0 0 0zm-11 0 1-1-1 1zm-28 0 1-1v1h-1zm15-1h1l-1 1v-1zm-13 0v1-1zm-5 0c1 0 1 0 0 0zm24 0v-1 1h-1 1zm-26 0c0-1 0-1 0 0zm21-2 2-2-2 2-1 2 1-2zm16 1v1-1zm1 0s-1 0 0 0zm13 0v-1 1zm2 0a112 112 0 0 1 0-1c-1-1-1-1 0 0l1 1h-1zm-53 0c0-1 0-1 0 0zm39 0a12 12 0 0 1 2 0h-2zm-22-1-1 1 1-1zm6-1h1-1v1-1zm27 0v1-1zm-32-1 2-1-1 1-2 2zm11 1h2-2zm-11-1 1-2-1 2-2 1 2-1zm34 1-1-1 1 1zm-6-1h1v1l-1-1zm-22 1 1-1-1 1zm25-1-1-1 1 1 1 1-1-1zm-41 0 1-1v1h-1zm23 0h1-1zm-27 0v-1 1zm9-1 2-2h-1l-1 2zm1 0h1-1c-1 1-1 1 0 0zm19 0h1l-1 1v-1zm12 0h-1l2 1-1-1zm5 0h1-1zm-49 0 1-1v1h-1zm19 0 2-2-1 1-1 1zm15 0h1-1zm12-1-1-1 1 1 1 1-1-1zm-20 0 3-1-1 1h-2zm-23 0h1-1zm33 0h1-1zm5 0h1-1zm8 0c-1-1-1-1 0 0zm-10 0h1-1c-1 0-1 0 0 0zm-30-1 1-1v1l-1 1v-1zm-8 0 1-1v1h-1zm3 0 1-1-1 1zm17 0h1-1zm27 0c0-1 0-1 0 0zm-40-1h1l-1 1v-1zm22 1v-1 1zm-14-1h1-1v1-1zm26-2zm-19 2 2-1-1 1h-1zm8 0h2-2zm16 0-1-1 1 1h1-1zm-45-1 1-1v1h-1zm3 1v-1c1 0 1 0 0 0v1zm12-1h1-1zm-7 0c0-1 0-1 0 0zm-4 0v-1l1-1-1 1v1zm18 0 1-1v1h-1zm22-1h-1 1v1-1zm-33 0v-1 1h-1 1zm14 0h1-1zm-16 0 2-2-1 1-1 1zm17 0v-1l1 1h-1zm-25-1h1l1-1-1 1h-1zm16 0h1-1c-1 1-1 1 0 0zm10 0h3-3zm15-1v-1l1 3-1-2zm-23 0h1-1v1-1zm-12 0v-1 1h-1 1zm4 0h1s0-1 0 0h-1zm12-1h1-1zm1 0h1c1 0 1 0 0 0h-1zm-20 0 1-1 1-1-1 1-1 1zm4 0v-1c1 0 1 0 0 0v1zm32-1v-1l1 1v1l-1-1zm-26 0h1l-1 1v-1zm12 0h1v1l-1-1zm-9 0c1 0 1 0 0 0zm-8 0 1-1-1 1zm9-1h1v1l-1-1zm-12 0c1-1 1-1 0 0zm5 0c1 0 0 0 0 0-1 0-1 0 0 0zm8 0h3-3zm20 0-1-1 1 1h1-1zm-5-1h-1l2 1-1-1zm-27 0h1-1zm5 0c0 1 0 1 0 0zm11 0zm-10 0 1-1v1h-1zm24-1h-1l2 1-1-1zm-6 0h1-1zm-15 0c1 0 0 0 0 0zm1 0c0-1 0-1 0 0 1 0 0 0 0 0zm1-1h1-1zm10 0c-1 0-1 0 0 0zm-8 0h1-1zm5 0h1-1zm9 0h1-1zm-1-1h1v1l-1-1zm-4-1h1-1zm-11 0h1-1zm10 0c1 0 1 0 0 0zm-8 0h1c1 0 0 0 0 0h-1zm5 0a4 4 0 0 1 2 0h-2z" style="fill:#00aeef;fill-opacity:1" transform="translate(150 67)"/></svg>
