<svg xmlns="http://www.w3.org/2000/svg" xml:space="preserve" viewBox="0 0 210 297"><path d="M-63.495 113.211c-1.084-.433-1.593-1.058-1.593-1.958 0-1.01 3.728-12.817 4.343-13.756.712-1.087 1.648-1.517 3.603-1.657l1.844-.132v-5.934l-1.031-.405c-1.26-.495-1.902-1.418-2.079-2.986-.074-.653-.182-1.187-.24-1.187-.06 0-.408.197-.776.437-1.243.815-1.754 2.309-1.98 5.792-.354 5.452-1.38 8.62-3.543 10.932-1.724 1.844-3.36 2.497-5.939 2.374-3.983-.191-7.554-2.733-9.612-6.841-1.502-2.998-1.906-4.869-1.884-8.725.022-3.673.38-5.55 1.767-9.241l.88-2.342-.848-1.683c-3.941-7.824-4.45-16.858-1.35-24.009 3.12-7.203 9.601-12.569 17.85-14.78 2.294-.614 3.075-.69 7.33-.709 4.177-.018 5.034.053 6.968.582 5.59 1.529 8.978 3.862 13.087 9.013 5.945 7.453 9.086 12.198 10.005 15.114.818 2.598.766 5.654-.143 8.333-1.783 5.255-6.578 9.857-11.86 11.382-.937.271-1.52.585-1.52.818 0 .414 2.556.551 7.436.398 2.457-.077 3.524.152 3.982.855.11.17.513.106 1.113-.179 2.32-1.101 5.749-1.088 7.651.03 1.201.705 1.84 2.062 1.677 3.561-.075.685-.338 1.553-.584 1.929-.427.651-.422.71.101 1.268.302.322.675.92.83 1.33.392 1.032.354 3.204-.073 4.226l-.356.852 2.01.025c1.105.014 2.366.047 2.803.073.437.025 1.759-.028 2.939-.12 2.545-.195 3.585.196 4.255 1.602.412.864.38 1.124-.918 7.415-.74 3.586-1.541 6.818-1.78 7.184-.877 1.337-3.64 1.834-5.612 1.01-.876-.366-1.052-.363-1.886.033-1.264.6-4.143.395-5.406-.386l-.917-.567-1.502.687c-1.34.614-1.763.677-3.936.595-1.583-.06-2.733-.246-3.287-.53-.803-.412-.908-.409-1.842.067-1.204.615-3.423.665-4.754.109-.844-.353-1.08-.353-2.118 0-1.434.486-3.069.49-4.414.01-.839-.298-1.16-.302-1.852-.018-.53.216-2.1.347-4.276.356-3.154.013-3.557-.041-4.844-.657-1.26-.602-1.451-.63-1.852-.274-.985.874-4.394 1.272-5.867.684zm38.07-2.737c1.83-.953 2.671-2.724 2.67-5.624-.002-2.49-.326-3.763-1.231-4.839-.983-1.168-2.021-1.613-3.781-1.621-1.715-.008-2.707.398-3.742 1.533-1.09 1.195-1.422 2.37-1.403 4.984.024 3.377.913 5.004 3.195 5.848 1.14.421 3.202.286 4.292-.28zm-3.951-2.84c-.465-.742-.536-1.221-.469-3.169.07-2.003.16-2.38.72-2.976.824-.877 1.856-.884 2.668-.02.865.92 1.075 4.542.345 5.952-.418.808-.621.936-1.598 1.007-1.018.074-1.169.002-1.666-.794zm-30.226 3.011c.18-.114.489-.677.687-1.253l.361-1.045 1.746-.078 1.746-.078.179.95c.237 1.266.745 1.72 1.92 1.715 1.787-.007 1.788.062-.097-6.098-.955-3.12-1.855-5.79-2-5.936-.392-.393-2.735-.32-3.241.1-.396.328-3.876 10.46-3.876 11.285 0 .19.149.405.33.478.525.212 1.887.187 2.245-.04zm1.729-5.407c.077-.473.35-1.574.607-2.447l.466-1.588.61 2.223c.335 1.222.547 2.324.47 2.447-.076.124-.623.225-1.216.225-1.067 0-1.076-.008-.937-.86zm10 5.349c.482-.258.512-.605.509-5.755-.003-3.015-.093-5.62-.202-5.79-.306-.483-1.461-.674-2.252-.374l-.717.273v5.642c0 4.036.09 5.733.317 5.96.39.39 1.655.413 2.346.044zm6.81-.044c.211-.212.317-1.376.317-3.493 0-1.746.099-3.061.22-2.923.12.138.743 1.423 1.382 2.856 1.412 3.164 2.011 3.877 3.259 3.877 1.838 0 1.754.3 1.754-6.225v-5.903l-.748-.165c-.411-.09-1.063-.044-1.447.102l-.7.266-.074 3.448-.074 3.448-1.587-3.568c-.962-2.161-1.77-3.627-2.048-3.72-.252-.083-.996-.07-1.653.028l-1.194.179v5.9c0 4.474.08 5.934.33 6.035.634.256 1.947.173 2.263-.142zm23.951-.013c.319-.233.622-1.31 1.024-3.638.314-1.82.61-3.357.657-3.418.198-.255.337.28.888 3.418.374 2.132.729 3.425.998 3.638.481.381 2.124.434 2.675.085.345-.218 2.375-9.812 2.396-11.318.006-.456-.189-.62-.89-.752-1.673-.314-1.88.009-2.41 3.77-.262 1.862-.552 3.473-.644 3.58-.092.107-.449-1.41-.792-3.373-.344-1.962-.785-3.7-.98-3.862-.488-.404-2.148-.061-2.444.504-.13.248-.508 1.97-.842 3.824-.333 1.855-.65 3.328-.705 3.273-.054-.054-.339-1.69-.632-3.636-.554-3.677-.797-4.2-1.957-4.2-.308 0-.756.149-.995.33-.4.305-.362.773.485 5.868.506 3.046 1.05 5.695 1.21 5.887.369.444 2.36.457 2.958.02zm-50.878-10.054c1.312-.663 2.223-1.849 2.674-3.48.48-1.732.337-6.796-.321-11.403-.763-5.344-.82-11.646-.134-14.787 1.54-7.052 5.038-12.298 10.63-15.944 8.337-5.434 16.803-5.534 20.078-.237.692 1.12.8 1.544.8 3.166 0 4.814-3.557 8.052-14.378 13.09-6.133 2.856-8.515 4.295-10.808 6.532-2.066 2.016-3.311 4.188-3.75 6.541l-.236 1.26 1.505-1.435c2.824-2.694 5.583-3.668 11.705-4.133 9.767-.741 15.391-3.027 18.635-7.571 3.616-5.068 3.1-11.335-1.427-17.314-2.305-3.043-8.543-9.768-10.436-11.249-3.816-2.986-7.39-4.131-13.036-4.18-5.109-.044-8.223.68-12.7 2.955-1.974 1.002-2.835 1.664-5.04 3.869-2.21 2.21-2.872 3.073-3.912 5.1-1.909 3.721-2.38 5.786-2.374 10.392.01 6.27.878 8.84 7.201 21.299 3.968 7.818 5.537 11.462 5.765 13.386.13 1.104.066 1.336-.541 1.944-.543.542-.848.653-1.424.517-3.754-.884-7.24-6.78-7.902-13.367l-.196-1.95-.367 1.322c-.452 1.633-.508 6.428-.096 8.172a12.153 12.153 0 0 0 3.181 5.741c2.285 2.29 4.66 2.897 6.904 1.764zm-.419-29.832c.069-3.222.194-4.21.779-6.167 1.213-4.056 2.94-6.909 5.886-9.724 3.232-3.09 6.372-4.825 10.682-5.901 2.476-.62 5.8-1.12 5.51-.83-.081.08-1.147.424-2.367.762-5.39 1.492-9.113 3.524-12.62 6.888-4.677 4.488-6.514 8.536-7.692 16.956-.229 1.632-.25 1.396-.178-1.984zm-2.57 2.249c-.112-.582-.277-2.199-.368-3.592-.615-9.454 4.11-17.44 12.65-21.383 2.835-1.31 5.948-2.124 8.732-2.287l2.208-.128-2.83.782c-9.138 2.525-14.465 6.477-17.674 13.114-1.729 3.574-2.167 5.518-2.357 10.451-.116 3.007-.212 3.819-.361 3.043zm-2.397.207c-.076-.124-.354-1.233-.616-2.465-.723-3.397-.663-8.991.127-11.75.895-3.126 2.479-5.951 4.626-8.25 2.149-2.3 4.129-3.721 7.163-5.139 2.59-1.209 4.492-1.722 7.87-2.12 3.043-.358 4.176-.212 1.95.251-4.53.944-8.981 2.716-12.038 4.792-4.483 3.044-7.766 7.975-8.845 13.284-.45 2.207-.54 7.867-.163 10.131.218 1.31.195 1.7-.074 1.266zm-3.327-2.244c-.978-2.939-1.34-5.261-1.344-8.625-.006-3.945.422-5.92 1.993-9.182 3.055-6.347 8.82-10.337 16.81-11.632 1.37-.223 3.027-.393 3.681-.378l1.191.026-1.058.247c-3.88.906-5.825 1.48-7.758 2.287-9.367 3.913-14.373 12.157-13.686 22.537.102 1.533.346 3.56.543 4.505.196.944.319 1.755.271 1.803-.047.047-.336-.668-.643-1.588zm26.393 25.817.821-.164.072-4.797.072-4.796 1.536-.08 1.535-.08-.08-1.243-.08-1.243-4.697-.072-4.696-.073v2.632l1.521.08 1.522.079.147 4.762c.082 2.62.171 4.784.199 4.81.049.045.806.257 1.142.319.09.017.535-.043.986-.134zm7.9-.096c.223-.003.345-.755.397-2.451l.077-2.448 1.785-.078 1.786-.078v2.4c0 2.366.01 2.403.718 2.672.79.3 1.945.11 2.252-.373.272-.426.25-11.339-.023-11.769-.145-.23-.658-.319-1.517-.264l-1.297.082-.077 2.327-.077 2.327-1.775-.078-1.775-.078-.077-2.329-.077-2.328-1.378.08-1.379.079-.071 6.026-.071 6.026.6.247c.33.136.839.195 1.13.13.29-.066.673-.12.85-.122zm11.767-.339c.243-.381.293-11.063.055-11.682-.115-.3-.516-.418-1.427-.418-.91 0-1.311.117-1.426.418-.23.599-.192 11.297.041 11.647.459.686 2.329.71 2.757.035zm8.409.004c1.94-.995 2.644-3.128 1.692-5.132-.49-1.032-1.635-1.706-3.739-2.202-1.616-.38-2.09-.96-1.488-1.82.491-.7 1.75-.753 3.291-.137 1.342.537 1.638.294 1.527-1.256-.079-1.094-.144-1.18-1.142-1.515-1.436-.48-4.215-.258-5.108.409-1.724 1.287-2.314 3.233-1.5 4.947.527 1.111 1.203 1.527 3.438 2.11 1.4.366 2.244.937 2.244 1.52 0 .106-.2.394-.443.637-.43.43-1.397.445-4.584.07-.604-.071-.668.02-.743 1.053-.076 1.057-.025 1.155.794 1.51 1.41.613 4.382.513 5.76-.194zM-58.15 70.957c1.112-.75 4.49-2.686 7.506-4.302 6.147-3.293 6.82-3.694 8.74-5.215 2.449-1.941 3.079-4.498 1.233-5.008-2.895-.798-8.263.833-12.379 3.762-4.328 3.081-8.497 9.03-9.279 13.243l-.193 1.043 1.176-1.08c.646-.593 2.085-1.692 3.196-2.443z" style="fill:#00aeef;fill-opacity:1" transform="translate(149.845 66.854)"/><path d="M-63.432 113.21c-1.106-.319-1.75-1.293-1.595-2.414.136-.992 3.743-12.361 4.18-13.178.51-.955 1.854-1.572 3.432-1.577.8-.003 1.609-.102 1.795-.221.252-.16.32-.995.265-3.22l-.075-3.006-.843-.218c-1.14-.294-1.89-1.327-2.096-2.886-.095-.712-.292-1.294-.437-1.294-.526 0-2.04 1.895-2.28 2.855-.135.54-.32 2.255-.411 3.813-.48 8.197-3.77 12.911-9.014 12.911-5.064 0-9.708-4.315-11.396-10.588-1.044-3.882-.425-10.113 1.448-14.571l.764-1.82-1.323-2.966c-.728-1.632-1.633-4.104-2.01-5.495-.62-2.288-.685-2.992-.69-7.423-.004-4.675.03-4.995.745-7.143 3.106-9.316 9.734-15.306 19.683-17.788 3.062-.764 10.047-.833 12.85-.126 4.537 1.143 8.032 3.098 11.068 6.19 3.46 3.522 10.367 12.953 11.971 16.343.887 1.875 1.193 3.33 1.2 5.71.014 4.125-1.537 7.603-4.888 10.963-2.39 2.397-4.232 3.582-7.055 4.537-3.686 1.247-3.159 1.486 3.356 1.525 4.616.027 5.152.078 5.656.534.546.495.575.495 1.674 0 1.597-.72 6.063-.722 7.248-.005 1.71 1.035 2.313 3.513 1.32 5.412-.417.796-.423.929-.057 1.333 1.165 1.287 1.518 3.617.841 5.538l-.379 1.074 2.033.016c1.118.008 2.39.025 2.826.036.437.012 1.687-.06 2.78-.161 2.558-.235 3.805.22 4.38 1.599.373.891.327 1.282-.82 6.954-.668 3.306-1.334 6.396-1.481 6.866-.564 1.807-3.223 2.654-5.745 1.828-1.175-.384-1.411-.387-2.255-.035-1.65.69-4.225.388-5.5-.645-.605-.49-.63-.487-1.807.205-1.087.64-1.442.702-3.972.702-2.161 0-2.969-.104-3.637-.47-.823-.45-.89-.45-1.576 0-.959.628-4.45.662-5.369.052-.573-.38-.702-.38-1.44-.002-1.095.562-4.323.567-5.167.007-.569-.378-.702-.373-1.562.066-.952.486-2.27.578-3.473.243-.364-.102-1.082-.072-1.595.065-1.352.36-3.289-.006-4.235-.803-.766-.644-.83-.655-1.307-.223-1.165 1.054-4.019 1.481-6.025.902zm37.32-2.406c1.397-.418 2.63-1.676 3.065-3.127.191-.64.341-2.114.334-3.278-.026-3.961-1.804-6.098-5.068-6.094-3.097.003-4.9 1.94-5.206 5.592-.443 5.277 2.489 8.222 6.876 6.907zm-2.797-2.656c-1.059-.803-1.367-4.336-.525-6.016.927-1.852 2.921-1.59 3.49.458.583 2.099.168 5.118-.773 5.621-.682.365-1.666.337-2.192-.063zm-30.44 2.382c.118-.182.338-.748.488-1.257l.273-.926H-55.183l.273.926c.418 1.417.614 1.588 1.81 1.583 2.01-.007 2.007.123.092-6.109-1.07-3.483-1.913-5.779-2.196-5.986-.663-.485-2.322-.414-2.977.127-.77.635-4.332 11.266-3.915 11.683.397.397 2.484.366 2.748-.041zm1.52-5.424c.381-1.611.98-3.557 1.068-3.468.051.052.284.835.519 1.74.234.904.495 1.827.58 2.05.127.329-.08.405-1.092.405-1.226 0-1.244-.012-1.075-.727zm10.177 5.39c.211-.254.28-2.07.23-6.013l-.07-5.649-.728-.255a2.207 2.207 0 0 0-1.456 0l-.727.255-.072 5.65c-.05 3.943.02 5.758.231 6.012.166.2.75.364 1.296.364.547 0 1.13-.164 1.296-.364zm6.488.204c.35-.134.42-.709.433-3.506l.015-3.345 1.446 3.029c1.755 3.674 2.011 3.982 3.306 3.982 1.93 0 1.833.33 1.833-6.24V98.7l-.699-.176c-.384-.096-1.01-.066-1.389.067-.686.24-.691.263-.823 3.676l-.132 3.434-1.58-3.516c-1.257-2.794-1.708-3.547-2.198-3.67-.656-.165-2.395.042-2.67.317-.303.301-.331 10.944-.032 11.504.284.53 1.567.718 2.49.364zm24.22-.225c.177-.211.582-1.812.9-3.557.32-1.745.648-3.24.731-3.323.083-.082.416 1.368.74 3.224.324 1.855.714 3.524.867 3.707.358.432 2.713.435 3.057.003.27-.338 2.19-10.191 2.185-11.216-.002-.312-.191-.64-.421-.728-.71-.272-1.884-.178-2.177.175-.153.185-.485 1.763-.737 3.506-.252 1.744-.531 3.257-.62 3.362-.09.106-.44-1.383-.781-3.307-.34-1.925-.755-3.587-.92-3.694-.417-.27-1.81-.243-2.264.044-.232.147-.65 1.695-1.088 4.031-.694 3.7-.716 3.76-.902 2.47-.528-3.668-1.006-6.11-1.256-6.412-.373-.45-1.925-.427-2.307.033-.377.454 1.407 11.539 1.908 11.858.564.358 2.746.234 3.086-.176zm-51.244-9.767c1.121-.478 1.883-1.336 2.618-2.948.535-1.173.6-1.716.583-4.891-.01-1.965-.22-4.941-.466-6.615-1.417-9.632-.937-15.75 1.675-21.33 2.545-5.44 6.251-9.124 11.934-11.861 5.253-2.53 10.068-2.969 13.587-1.236 4.71 2.318 5.389 7.417 1.556 11.68-1.792 1.993-4.934 3.924-11.804 7.255-6.982 3.385-8.601 4.341-10.707 6.319-2.286 2.148-3.466 4.259-4.153 7.43-.158.733-.087.698 1.43-.708 2.945-2.725 5.64-3.645 12.193-4.16 8.39-.658 13.14-2.347 16.816-5.98 4.574-4.521 4.992-10.838 1.138-17.2-2.276-3.755-10.864-12.812-13.72-14.469-2.06-1.195-5.162-2.218-7.911-2.61-4.125-.587-10.28.275-14.107 1.976-8.106 3.602-13.198 11.435-13.163 20.245.023 5.554 1.14 8.839 7.114 20.91 5.85 11.82 6.74 14.376 5.523 15.842-.472.57-1.897.372-3.18-.442-3.153-2-5.54-6.863-6.177-12.587l-.206-1.852-.378 1.19c-.226.713-.39 2.414-.41 4.234-.044 4.426.832 7.042 3.211 9.586 2.17 2.32 4.81 3.157 7.004 2.222zm-.217-30.197c.156-5.172 1.53-9.4 4.263-13.123 1.416-1.928 4.62-4.76 6.794-6.004 3-1.716 7.85-3.236 10.252-3.211.73.007.463.146-1.258.655-7.123 2.106-12.05 5.49-15.59 10.703-2.117 3.118-3.325 6.477-4.09 11.373l-.476 3.047zM-71.05 72.1c-.453-2.346-.25-7.684.383-10.054 2.472-9.265 10.52-15.644 20.683-16.392l2.227-.164-2.91.784C-61.09 49.081-67.36 54.641-69.88 63.316c-.397 1.364-.605 3.067-.734 6.005-.16 3.66-.208 3.959-.436 2.778zm-2.735-.729c-3.399-14.683 4.87-26.334 19.86-27.984 1.458-.16 2.698-.245 2.755-.188.056.056-1.21.426-2.814.822-6.939 1.711-12.007 4.698-15.218 8.97-3.505 4.663-4.953 10.254-4.339 16.744.148 1.558.226 2.876.173 2.928-.053.053-.24-.528-.417-1.292zm-3.151-1.319c-.94-3.255-1.191-5.367-1.058-8.904.106-2.829.247-3.688.929-5.654 1.072-3.089 2.19-4.91 4.545-7.399 3.928-4.151 9.251-6.451 16.031-6.927l2.117-.149-2.778.63c-11.409 2.586-18.16 9.13-19.604 18.999-.349 2.387-.193 7.399.301 9.684.453 2.093.152 1.919-.483-.28zm27.04 26.626c.36-.138.419-.822.419-4.895v-4.734h1.169c1.826 0 2.006-.145 2.006-1.616v-1.294h-4.734c-5.113 0-5.056-.017-5.056 1.457 0 .991.68 1.453 2.136 1.453h1.304v4.617c0 4.118.05 4.646.463 4.887.522.304 1.665.366 2.293.125zm7.58-.113c.448-.24.512-.572.512-2.646v-2.372h3.42l.076 2.442c.074 2.397.089 2.446.803 2.696.468.164.988.164 1.456 0l.727-.256.071-6.018.071-6.017-.732-.28a2.556 2.556 0 0 0-1.527-.052c-.786.224-.794.247-.926 2.467l-.132 2.24-1.643.078-1.643.079-.077-2.319-.076-2.318-.794-.226c-.487-.14-1.076-.12-1.522.05l-.727.277v5.947c0 5.384.044 5.972.463 6.216.602.35 1.557.356 2.2.012zm11.377 0c.483-.259.512-.612.512-6.225v-5.95l-.684-.26c-.396-.15-1.035-.169-1.521-.043l-.838.217-.071 5.936c-.064 5.347-.027 5.97.381 6.267.55.403 1.53.428 2.221.058zm8.71-.216c1.258-.675 1.89-1.613 2.051-3.048.27-2.384-.65-3.434-3.833-4.381-1.712-.51-1.918-.641-1.918-1.226 0-1.001 1.029-1.367 2.597-.925 1.953.551 2.224.51 2.468-.382.12-.436.149-1.013.065-1.28-.405-1.284-4.215-1.673-6.185-.631-1.998 1.056-2.728 3.558-1.584 5.433.57.937 1.416 1.377 3.637 1.896 1.433.336 2.047.935 1.75 1.71-.222.578-1.206.775-2.829.563-2.823-.367-2.688-.407-2.778.826-.071.981.005 1.155.662 1.511 1.113.604 4.723.563 5.897-.066zm-38.93-23.085c1.874-1.65 5.013-3.626 9.83-6.185 5.937-3.154 8.211-4.52 9.726-5.846 3.583-3.134 2.383-5.688-2.308-4.914-7.073 1.168-13.483 6.075-16.814 12.87-1.103 2.25-2.123 5.16-1.81 5.16.08 0 .698-.488 1.376-1.085z" style="fill:#00aeef;fill-opacity:1" transform="translate(149.845 66.854)"/><path d="m-62.31 113.333-1.13-.24c-.834-.179-1.648-1.055-1.648-1.775 0-.746 3.718-12.445 4.327-13.616.604-1.16 1.678-1.658 3.582-1.658.94 0 1.664-.128 1.78-.315.282-.457.462-4.248.254-5.355-.133-.713-.308-.945-.711-.945-1.312 0-2.352-1.332-2.352-3.014 0-1.177-.398-1.417-1.284-.773-1.233.899-1.826 2.47-2.004 5.316-.456 7.288-2.025 10.988-5.464 12.891-1.268.702-1.68.792-3.551.78-3.12-.021-4.792-.754-7.152-3.136-3.263-3.293-4.644-6.923-4.648-12.215-.002-3.445.417-5.677 1.716-9.144l.95-2.536-.905-1.86c-2.46-5.053-3.476-9.777-3.249-15.111.158-3.712.703-6.034 2.156-9.18 3.424-7.41 10.387-12.767 18.937-14.57 3.369-.71 9.434-.657 12.515.11 4.35 1.083 8.083 3.216 11.06 6.316 1.25 1.3 4.803 5.752 7.733 9.687 1.658 2.227 4.177 6.712 4.675 8.323 2.037 6.594-1.924 14.626-8.945 18.14-1.343.673-2.852 1.3-3.353 1.394-.933.175-1.678.78-1.356 1.102.17.17 4.396.355 6.113.269 3.344-.168 4.636-.045 5.174.494l.55.548 1.107-.551c1.52-.758 4.81-.912 6.41-.301 1.758.671 2.502 1.71 2.502 3.495 0 .864-.173 1.753-.423 2.177-.403.682-.391.766.25 1.712 1.07 1.576 1.187 3.68.32 5.757-.157.379.156.447 2.549.554 1.5.067 3.39.005 4.2-.138 3.237-.573 5.275.432 5.275 2.603 0 1.453-2.262 12.353-2.766 13.328-.211.408-.777.908-1.256 1.11-1.118.471-3.61.427-4.632-.083-.637-.318-.878-.33-1.24-.066-1.199.877-4.584.635-6.055-.432-.734-.533-.735-.533-1.405-.006-1.45 1.14-5.679 1.377-7.916.442-.877-.366-1.045-.363-1.805.031-1.12.581-4.39.598-5.26.027-.565-.37-.705-.37-1.403-.005-1.04.546-3.986.536-5.054-.016-.576-.298-.9-.34-1.098-.142-.461.462-2.536.734-3.652.48a4.475 4.475 0 0 0-2.062.035c-1.328.354-2.837.086-4.013-.713l-.94-.638-.717.52c-1.094.793-3.232 1.2-4.685.893zm36.918-2.803c1.448-.732 2.247-1.887 2.651-3.835.654-3.149-.285-6.42-2.209-7.692-.894-.592-1.366-.71-2.831-.71-1.476 0-1.936.117-2.859.728-1.791 1.185-2.3 2.46-2.3 5.754 0 2.577.054 2.87.752 4.06 1.305 2.22 4.285 2.963 6.796 1.695zm-3.659-2.583c-.604-.649-.853-1.668-.832-3.404.032-2.6 1.181-4.074 2.723-3.488 1.02.388 1.34 1.246 1.352 3.634.01 1.794-.084 2.29-.544 2.91-.723.973-1.966 1.133-2.699.348zm-30.272 2.583c.15-.182.38-.748.512-1.257l.24-.926h3.372l.239.926c.131.51.362 1.075.512 1.257.382.462 2.83.435 3.01-.034.23-.6-3.082-11.084-3.666-11.608-.611-.547-2.518-.625-3.195-.13-.66.484-4.187 11.334-3.825 11.77.358.43 2.446.432 2.801.002zm1.38-4.832c0-.22 1.037-3.901 1.124-3.988.043-.043.33.867.636 2.022l.557 2.101h-1.159c-.637 0-1.159-.06-1.159-.135zm10.164 5.002c.364-.14.419-.91.419-5.9 0-4.112-.09-5.83-.318-6.057-.175-.175-.746-.318-1.27-.318s-1.095.143-1.27.318c-.343.343-.477 11.606-.141 11.941.22.22 2.018.232 2.58.016zm6.975-3.405.075-3.434 1.463 3.034c.805 1.668 1.653 3.243 1.885 3.5.495.547 2.696.65 3.197.148.45-.45.45-11.351 0-11.8-.354-.354-2.018-.423-2.519-.105-.218.139-.346 1.28-.396 3.551l-.075 3.347-1.599-3.49-1.599-3.489-1.236-.08c-2.367-.154-2.313-.297-2.313 6.122 0 4.136.087 5.714.33 5.956.192.193.823.297 1.52.251l1.193-.078zm23.812 3.343c.186-.118.617-1.668.957-3.444.34-1.776.672-3.284.739-3.35.066-.067.387 1.393.714 3.244.326 1.85.734 3.455.907 3.565.524.333 2.741.233 3.049-.138.486-.585 2.416-11.38 2.103-11.76-.364-.44-2.183-.422-2.556.026-.162.196-.485 1.655-.718 3.241-.232 1.587-.486 3.064-.564 3.282-.079.218-.42-1.08-.758-2.886-.338-1.805-.676-3.442-.75-3.638-.186-.483-2.128-.46-2.618.03-.213.213-.647 1.85-.966 3.639a210.73 210.73 0 0 1-.642 3.499c-.034.136-.32-1.392-.638-3.395-.318-2.004-.645-3.752-.727-3.885-.192-.31-1.986-.31-2.478.002-.317.2-.24 1.059.505 5.618.483 2.96.976 5.65 1.095 5.977.188.516.404.595 1.612.591.768-.002 1.548-.1 1.734-.218zm-51.196-9.931c3.263-1.397 3.95-5.1 2.73-14.726-1.31-10.342-.741-16.33 2.084-21.952 3.851-7.664 13.249-13.55 21.04-13.176 7.806.374 10.703 7.56 5.239 12.991-2.418 2.402-4.205 3.42-15.442 8.797-4.257 2.036-8.034 5.132-9.462 7.755-.621 1.141-1.501 3.893-1.501 4.696 0 .172.687-.359 1.527-1.18 2.627-2.57 5.844-3.748 11.305-4.136 6.293-.448 9.709-1.203 13.31-2.943 7.009-3.383 9.939-10.24 7.282-17.037-.427-1.092-1.196-2.64-1.71-3.44-1.442-2.243-5.03-6.393-8.825-10.205-2.884-2.898-3.787-3.635-5.566-4.547-3.058-1.567-5.494-2.187-9.309-2.368-10.263-.488-18.807 4.163-22.944 12.49-1.814 3.653-2.129 5.122-2.124 9.922.006 6.47.817 8.856 7.497 22.056 4.332 8.56 5.324 10.97 5.324 12.935 0 1.627-.302 2.05-1.463 2.05-1.87 0-4.896-3.005-6.393-6.35-.828-1.849-1.652-5.073-1.692-6.614-.016-.655-.114-1.488-.217-1.852-.167-.59-.223-.519-.52.645-1.528 6.016.24 12.455 4.2 15.293 1.744 1.25 3.973 1.605 5.63.896zm-.212-30.328c.344-8.877 4.736-15.796 12.499-19.692 2.21-1.11 5.715-2.16 7.882-2.362.871-.082 1.347-.08 1.055.003-6.45 1.837-10.61 4.134-14.287 7.89-3.745 3.827-5.74 7.988-6.75 14.077l-.517 3.127zm-2.612 1.522c-.376-3.103-.409-4.36-.167-6.484.364-3.201.905-5.126 2.151-7.654 3.1-6.285 9.529-10.662 17.434-11.868 3.687-.563 3.925-.442.794.402-6.174 1.663-10.256 3.893-13.641 7.45-2.73 2.867-4.361 5.694-5.419 9.388-.625 2.185-1.134 7.153-.895 8.746.094.629.106 1.144.025 1.144-.08 0-.207-.506-.282-1.124zm-2.789-.76c-.923-4.305-.87-9.255.136-12.67 2.418-8.209 10.5-14.392 19.558-14.965l2.116-.134-2.38.644c-7.63 2.061-12.445 5.205-15.867 10.36-2.706 4.077-4.037 10.337-3.343 15.718.33 2.556.218 3.09-.22 1.046zm-3.28-1.747c-1.289-4.638-1.278-9.827.03-13.712 1.143-3.398 2.44-5.466 5.058-8.07 1.935-1.922 2.691-2.465 5.053-3.628 1.528-.752 3.731-1.608 4.895-1.901 2.014-.507 6.742-1.166 6.942-.966.051.051-.716.244-1.704.428-5.235.974-10.228 3.383-13.671 6.596-2.504 2.336-4.722 6.045-5.733 9.584-.7 2.45-.97 7.69-.553 10.78.165 1.224.257 2.27.204 2.322-.052.053-.287-.592-.52-1.433zm54.987 26.948a3.979 3.979 0 0 0 1.982-3.446c-.007-2.194-.942-3.212-3.58-3.899-1.805-.47-2.237-.752-2.237-1.459 0-.87 1.224-1.127 3.017-.632 1.702.47 1.92.389 2.16-.802.114-.574.011-.977-.37-1.447-.472-.584-.755-.66-2.733-.727-1.903-.066-2.352.007-3.265.533-1.932 1.11-2.586 3.725-1.382 5.522.462.69.97 1.016 2.183 1.403 2.983.95 3.036.978 3.036 1.636 0 1.183-1.215 1.373-4.697.736l-.86-.158v1.189c0 .665.155 1.316.352 1.48 1.069.887 4.913.93 6.394.071zm-27.534.08c.345-.346.415-1.176.415-4.895v-4.48h1.314c1.427 0 1.862-.392 1.862-1.683 0-1.354-.464-1.491-5.028-1.491-4.673 0-5.027.119-5.027 1.686 0 1.186.415 1.489 2.038 1.489h1.402v4.577c0 3.208.095 4.673.317 4.895.456.456 2.217.392 2.707-.098zm7.312.142c.448-.24.512-.572.512-2.646v-2.372h3.44v2.485c0 2.729.047 2.806 1.708 2.806.48 0 1.008-.163 1.175-.364.211-.254.28-2.138.23-6.277l-.07-5.914-.728-.256a2.212 2.212 0 0 0-1.456 0c-.704.247-.73.324-.804 2.432l-.077 2.177H-41.783l-.077-2.177c-.074-2.108-.1-2.185-.804-2.432a2.212 2.212 0 0 0-1.455 0l-.728.256-.071 6.06c-.055 4.672.006 6.11.264 6.274.474.3 1.731.272 2.338-.052zm11.597-.09c.212-.255.28-2.139.23-6.278l-.07-5.914-.728-.256a2.206 2.206 0 0 0-1.455 0l-.728.256-.071 5.914c-.05 4.14.02 6.023.23 6.277.167.2.75.365 1.296.365.547 0 1.13-.164 1.296-.365zm-26.96-25.694c1.382-.913 4.716-2.82 7.408-4.237 5.867-3.088 8.093-4.522 9.497-6.116 1.17-1.33 1.537-2.435 1.088-3.274-1.306-2.441-9.24-.4-14.409 3.708-4.023 3.197-7.682 8.793-8.443 12.912l-.163.88 1.254-1.106c.69-.609 2.385-1.854 3.768-2.767z" style="fill:#00aeef;fill-opacity:1" transform="translate(149.845 66.854)"/><path d="M-29.92 113.278c-.668-.1-1.541-.398-1.941-.66-.701-.46-.747-.459-1.261.007-.752.68-4.443.855-5.36.254-.571-.374-.74-.377-1.576-.028-1.24.518-4.36.516-5.102-.003-.487-.341-.659-.344-1.277-.024-.516.268-1.803.373-4.642.378-3.693.007-3.984-.03-4.844-.613l-.915-.622-1.26.638c-1.014.513-1.665.637-3.35.637-1.96 0-2.142-.049-2.866-.773-.425-.425-.774-.957-.774-1.18 0-.377 3.397-11.319 4.005-12.898.147-.384.618-1.033 1.046-1.443.664-.636 1.043-.762 2.56-.85 1.223-.07 1.886-.236 2.113-.526.21-.268.33-1.313.33-2.864 0-2.65-.13-3.278-.677-3.278-1.352 0-2.497-1.445-2.497-3.15 0-1.33-.606-1.462-1.64-.356-1.291 1.38-1.556 2.284-1.8 6.138-.263 4.184-.997 6.84-2.528 9.146-3.748 5.647-11.954 4.181-15.95-2.849-1.42-2.5-1.937-4.512-2.086-8.135-.163-3.936.277-6.574 1.694-10.15l.928-2.344-1.07-2.301c-4.795-10.323-4.144-20.56 1.82-28.604 5.309-7.162 15.536-11.368 25.088-10.316 5.763.634 9.874 2.395 13.642 5.845 3.04 2.783 10.796 13.295 12.577 17.046 2.335 4.914 1.582 10.082-2.2 15.114-2.09 2.779-5.078 4.869-8.678 6.068-1.603.533-2.079.802-2.014 1.135.07.369.474.437 2.594.441 1.38.003 2.645.091 2.812.197.167.106.94.071 1.72-.077 1.73-.328 3.572-.085 4.214.556.46.46.519.457 1.618-.101 1.515-.769 5.679-.825 7.04-.095 1.785.958 2.485 3.593 1.417 5.337-.479.782-.477.805.12 1.593 1.117 1.477 1.316 3.862.498 5.994-.13.339.294.425 2.703.552 1.571.082 3.392.046 4.047-.08 2.917-.565 5.291.529 5.293 2.437 0 1.345-2.385 12.706-2.81 13.379-.205.325-.669.785-1.03 1.021-.881.578-3.754.563-4.89-.025-.786-.406-.878-.405-1.335.008-.755.684-4.59.467-5.696-.323l-.812-.578-1.305.634c-1.436.697-3.778.982-5.694.692zm-29.415-2.754c.181-.14.454-.717.606-1.282l.276-1.027h3.105l.356 1.122c.245.773.585 1.232 1.093 1.474.849.406 2.267.192 2.484-.373.191-.498-3.027-10.96-3.553-11.55-.595-.668-2.803-.636-3.49.052-.622.621-4.126 11.358-3.808 11.666.51.494 2.25.445 2.931-.082zm1.49-5.154c.075-.254.34-1.177.588-2.05l.452-1.588.488 1.72c.669 2.357.663 2.381-.586 2.381-.9 0-1.054-.075-.941-.463zm17.108 4.68c.087-.355.121-1.835.077-3.29l-.08-2.646 1.65 3.307 1.651 3.307 1.411.08c.813.047 1.57-.05 1.786-.23.503-.418.556-11.337.058-11.836-.175-.174-.7-.317-1.17-.317-1.686 0-1.686-.002-1.71 3.666l-.021 3.345-1.434-3.042c-.788-1.674-1.535-3.222-1.659-3.44-.315-.553-3.014-.692-3.441-.177-.224.27-.292 2.013-.24 6.161l.07 5.785.794.149c1.213.227 2.08-.089 2.258-.822zm15.005.668c.536-.224 1.2-.61 1.475-.86 2.097-1.896 2.325-7.527.404-9.97-1.265-1.607-4.123-2.176-6.177-1.228-1.361.629-2.13 1.479-2.637 2.915-.479 1.356-.538 4.843-.105 6.137.438 1.306 1.497 2.62 2.445 3.033 1.114.485 3.402.471 4.595-.027zm-3.214-2.85c-1.273-1.273-1.13-5.699.212-6.595.16-.107.675-.196 1.144-.198 1.029-.005 1.51.765 1.734 2.774.395 3.542-1.327 5.781-3.09 4.018zm12.182 2.569c.165-.215.5-1.547.742-2.96.672-3.918.784-3.977 1.321-.704.689 4.195.623 4.087 2.508 4.087.868 0 1.641-.101 1.718-.225.076-.124.618-2.763 1.203-5.864.795-4.21.99-5.727.77-5.992-.315-.38-2.008-.477-2.528-.146-.173.11-.507 1.388-.74 2.84-.688 4.26-.677 4.255-1.331.743-.33-1.77-.68-3.348-.777-3.505-.247-.401-2.402-.358-2.745.055-.155.188-.567 1.884-.915 3.77l-.632 3.43-.33-2.382c-.181-1.31-.469-2.976-.638-3.704l-.309-1.323-1.26-.08c-.968-.063-1.297.018-1.424.348-.182.474 1.427 10.844 1.793 11.554.415.807 2.964.848 3.574.058zm-30.657-5.643c.077-6.458.1-6.358-1.44-6.365-1.745-.008-1.674-.271-1.674 6.198 0 3.234.084 5.965.188 6.069.103.103.788.153 1.521.11l1.333-.078zm-20.157-4.384c.845-.495 1.315-1.043 1.873-2.183 1.098-2.242 1.153-5.496.217-12.812-1.436-11.224-.436-17.683 3.7-23.898 2.948-4.432 7.775-7.948 13.502-9.835 2.72-.897 6.89-1.022 9.04-.272 2.868 1 4.85 3.583 4.85 6.32 0 4.894-3.252 7.83-14.578 13.163-6.137 2.89-8.573 4.37-10.72 6.517-1.84 1.842-3.41 4.74-3.7 6.836l-.179 1.299 1.433-1.432c1.643-1.64 3.94-2.953 6.202-3.542.861-.224 3.551-.582 5.977-.795 8.662-.761 12.956-2.207 16.616-5.596 2.907-2.692 4.243-5.628 4.238-9.315-.009-5.457-2.369-9.37-11.101-18.403-3.43-3.55-5.798-5.158-9.232-6.274-2.245-.73-3.011-.845-6.387-.956-3.148-.104-4.289-.033-6.354.395-7.656 1.587-13.406 5.944-16.521 12.52-1.454 3.069-1.997 5.614-1.991 9.345.008 6.015.887 8.68 6.769 20.529 5.209 10.493 5.973 12.275 6.132 14.306.179 2.281-.756 2.903-2.798 1.86-3.352-1.71-6.236-7.19-6.592-12.528-.085-1.273-.24-2.315-.346-2.315-.51 0-.92 2.715-.897 5.953.027 3.816.434 5.427 1.984 7.843 2.259 3.519 6.05 4.918 8.863 3.27zm-.806-30.032c.414-8.868 4.833-15.832 12.425-19.581 2.333-1.153 5.82-2.226 8.07-2.483 1.396-.16 1.364-.139-.794.515-11.231 3.406-17.754 10.722-19.447 21.815l-.384 2.513zm-5.66-.777c-.493-2.983-.387-7.802.224-10.226.701-2.784 2.298-5.951 4.02-7.979 3.727-4.384 9.661-7.376 15.594-7.86l1.95-.16-2.38.642c-9.987 2.69-16.124 8.255-18.424 16.704-.474 1.74-.58 2.88-.601 6.416-.014 2.365-.038 4.3-.053 4.3s-.164-.827-.33-1.837zm2.993-2.265c.06-3.534.17-4.539.666-6.085 1.14-3.545 2.815-6.37 5.18-8.735 3.554-3.554 9.268-6.228 14.129-6.612l1.731-.137-2.249.646c-8.082 2.32-13.684 6.577-16.744 12.721-1.285 2.582-1.956 4.921-2.286 7.97-.155 1.438-.331 3.03-.39 3.54-.06.51-.076-.98-.037-3.308zm-6.21 1.143c-.821-3.46-.98-7.454-.41-10.283.864-4.29 2.425-7.25 5.44-10.32 3.169-3.226 7.367-5.336 12.345-6.204 3.388-.59 3.995-.457 1.202.265-4.723 1.22-8.477 3.16-11.492 5.939-3.36 3.097-5.51 6.853-6.399 11.181-.474 2.306-.558 7.676-.158 10.115.394 2.409.123 2.053-.528-.693zm54.069 28.338c2.23-.62 3.56-2.758 3.07-4.94-.31-1.38-1.47-2.316-3.692-2.977-1.95-.581-2.42-1.033-1.824-1.751.35-.423 1.545-.407 3.859.052.806.16.85.124 1.03-.83.33-1.76-.718-2.532-3.455-2.548-3.13-.018-4.9 1.492-4.9 4.18 0 2.026.943 3.052 3.367 3.661 1.992.5 2.454.781 2.454 1.492 0 1.037-1.652 1.312-3.86.642-1.189-.36-1.328-.356-1.63.05-.492.661-.401 1.786.187 2.318.948.858 3.527 1.169 5.394.65zm-26.338-.297c.222-.222.317-1.687.317-4.895v-4.577h1.27c.699 0 1.413-.143 1.588-.318.41-.41.41-2.129 0-2.54-.446-.445-8.974-.445-9.42 0-.41.411-.41 2.13 0 2.54.175.175.95.318 1.72.318h1.403v4.74c0 3.545.083 4.774.33 4.874.651.263 2.48.17 2.792-.142zm7.408 0c.2-.2.318-1.19.318-2.658V91.52l1.653.078 1.654.08.132 2.513.133 2.513.896.086c.493.047 1.178.015 1.522-.071l.624-.157v-6.028c0-4.335-.089-6.116-.317-6.345-.336-.336-1.737-.426-2.44-.156-.335.128-.418.6-.418 2.38v2.221h-3.44v-2.063c0-2.313-.212-2.7-1.486-2.7-1.767 0-1.688-.3-1.688 6.467 0 3.38.08 6.225.176 6.322.301.301 2.347.194 2.681-.141zm11.276.157c.365-.14.419-.934.419-6.165 0-4.317-.09-6.093-.318-6.322-.174-.174-.746-.317-1.27-.317-.523 0-1.095.143-1.27.317-.464.464-.451 12.285.014 12.472.478.193 1.937.202 2.425.015zm-26.69-25.965c.879-.59 4.094-2.408 7.144-4.042 6.181-3.313 7.412-4.08 9.072-5.655 4.992-4.736-.47-6.695-8.28-2.969-4.826 2.302-8.862 6.275-11.32 11.143-.617 1.222-1.786 4.625-1.786 5.198 0 .137.803-.394 1.786-1.178a61.278 61.278 0 0 1 3.384-2.497z" style="fill:#00aeef;fill-opacity:1" transform="translate(149.845 66.854)"/><path d="M-62.376 113.049a11.515 11.515 0 0 1 1.985 0c.546.057.1.104-.992.104s-1.538-.047-.993-.104zm7.406-.027c-.183-.116.413-.165 1.323-.109 2.245.139 2.53.283.598.304-.873.009-1.737-.079-1.92-.195zm5.56.03c.4-.06 1.054-.06 1.454 0 .4.06.073.11-.727.11-.8 0-1.128-.05-.728-.11zm5.952-.002a8.42 8.42 0 0 1 1.72 0c.473.059.086.107-.86.107s-1.333-.048-.86-.107zm6.344 0c.47-.058 1.303-.059 1.852-.001.55.057.165.105-.854.106-1.018 0-1.467-.046-.998-.104zm7.15.005a3.768 3.768 0 0 1 1.19 0c.328.063.06.114-.595.114s-.922-.051-.595-.114zm3.312.003c.258-.068.615-.063.794.01.18.072-.031.127-.468.122-.437-.005-.583-.065-.326-.132zm6.745-.004c.33-.064.806-.061 1.059.005.252.066-.017.118-.599.115-.582-.003-.789-.057-.46-.12zm2.377-.071c.472-.112 1.03-.346 1.239-.52.298-.248.542-.229 1.126.088.41.222.648.409.53.415-.12.006-.449-.114-.733-.266-.387-.207-.662-.174-1.1.132-.32.225-.884.397-1.252.382-.58-.024-.556-.054.19-.231zm3.64.124c.585-.204 3.553-.283 3.243-.086-.183.116-1.048.204-1.92.195-.874-.01-1.47-.059-1.324-.11zm-37.24-.306c.181-.074.479-.074.66 0 .183.073.034.133-.33.133s-.513-.06-.33-.133zm4.659-.229c.432-.25.856-.338.988-.205.133.132.035.239-.228.25-.252.01-.697.102-.988.205-.291.103-.189-.009.228-.25zm7.46-.002c-.282-.213-.401-.384-.264-.38.137.005.48.184.763.397.282.214.401.385.264.38-.137-.005-.48-.183-.762-.397zm7.044-.014c-.495-.347-.678-.36-1.051-.08-.418.313-.42.304-.026-.13.405-.445.466-.442 1.322.08.494.302.776.548.626.549-.15 0-.541-.188-.871-.42zm9.97-.125-.625-.545.794.465c1.045.611 1.06.625.735.625-.154 0-.56-.246-.904-.545zm-42.595-.183c-.33-.42-.32-.429.1-.1.254.2.463.408.463.463 0 .218-.217.078-.563-.363zm6.141.388c.06-.041.348-.25.64-.463.489-.359.501-.353.166.075-.2.255-.488.463-.64.463-.152 0-.227-.034-.166-.075zm2.211-.336c-.493-.395-.49-.4.082-.123.328.158.595.343.595.411 0 .203-.137.144-.677-.288zm31.898.134c.918-.623 1.44-.805.794-.276-.364.298-.78.542-.926.543-.145.001-.086-.12.132-.267zm14.288.177c0-.055.208-.263.463-.463.42-.329.429-.32.1.1-.346.44-.563.581-.563.363zm-19.364-1.404c.19-.076.419-.067.507.021.088.088-.069.15-.348.14-.308-.013-.37-.076-.16-.16zm2.38 0c.192-.076.42-.067.508.021.088.088-.068.15-.347.14-.308-.013-.371-.076-.16-.16zm-35.396-.471c-.177-.214-.26-.541-.186-.728.088-.219.144-.18.157.11.012.248.23.571.484.72.255.148.33.273.165.278-.164.004-.443-.167-.62-.38zm14.61.102c.37-.215.474-.682.516-2.307l.053-2.038.092 1.943c.09 1.91-.153 2.698-.825 2.68-.164-.004-.09-.13.165-.278zm3.93-.079c-.211-.255-.279-2.098-.225-6.151l.077-5.788.06 5.874c.055 5.277.108 5.902.524 6.144.255.148.329.273.165.278-.164.004-.434-.156-.6-.357zm13.336.103c-.092-.15.014-.194.25-.104.458.176.542.366.161.366-.137 0-.322-.118-.41-.262zm13.118.187c.06-.041.348-.25.639-.463.49-.36.502-.354.166.075-.2.254-.487.463-.64.463-.151 0-.226-.034-.165-.075zm3.383-.388c-.336-.429-.323-.434.166-.075.291.213.58.422.64.463.06.04-.014.075-.166.075s-.44-.209-.64-.463zm3.408-.022c.254-.267.51-.449.566-.404.157.123-.53.889-.797.889-.128 0-.024-.219.23-.485zm1.674.066c.013-.309.075-.371.16-.16.076.19.067.419-.021.507-.088.088-.15-.068-.139-.347zm-28.787-.177c-.396-.513-.646-.992-.516-.992.064 0 .312.298.55.662.447.68.422.92-.034.33zm5.962-.661c-.773-.828-1.278-1.721-1.263-2.232.006-.191.191.069.412.578.22.51.714 1.254 1.097 1.654.383.4.637.727.564.727-.072 0-.437-.327-.81-.727zm-1.954-5.226c0-3.201.038-4.474.085-2.83.046 1.646.046 4.265 0 5.822-.047 1.556-.085.21-.085-2.992zm12.894 4.895c0-.364.06-.513.133-.33.074.181.074.479 0 .66-.073.183-.133.034-.133-.33zm4.477.11c.012-.308.075-.37.16-.16.076.191.067.42-.021.508-.088.087-.15-.069-.14-.348zm-42.334-.264c.013-.308.076-.371.16-.16.077.19.067.42-.02.507-.089.088-.151-.068-.14-.347zm44.186 0c.013-.308.075-.371.16-.16.076.19.067.42-.021.507-.088.088-.15-.068-.14-.347zm5.82 0c.013-.308.076-.371.16-.16.077.19.068.42-.02.507-.088.088-.15-.068-.14-.347zm-1.322-.265c.012-.308.075-.37.16-.16.076.191.067.42-.021.507-.088.088-.15-.068-.14-.347zm-41.54-.263c.013-.308.076-.37.16-.16.076.191.067.42-.02.507-.089.088-.151-.068-.14-.347zm11.113-.53c.012-.307.075-.37.16-.159.076.191.067.42-.021.507-.088.088-.15-.068-.14-.347zm19.345-.242c.005-.436.065-.583.132-.325.067.257.062.614-.01.793-.073.18-.127-.031-.122-.468zm4.996.243c.013-.308.076-.371.16-.16.077.191.067.42-.02.507-.089.088-.151-.068-.14-.347zm7.673-.265c.013-.308.076-.37.16-.16.077.191.067.42-.02.508-.089.087-.151-.069-.14-.348zm-31.062-.784c-.621-1.303-.534-1.525.116-.293.295.56.49 1.064.433 1.12-.058.058-.304-.314-.549-.827zm10.399.535c-.185-.221-.284-.454-.221-.517.062-.062.259.119.437.403.384.616.256.683-.216.114zm1.857.3c0-.058.185-.175.41-.262.236-.09.342-.046.25.104-.156.251-.66.372-.66.158zm12.456-.315c.013-.309.076-.371.16-.16.077.19.067.419-.02.507-.089.088-.151-.068-.14-.347zm5.027 0c.013-.309.076-.371.16-.16.077.19.067.419-.02.507-.089.088-.151-.068-.14-.347zm-6.064-.904c0-.364.06-.513.133-.331.074.182.074.48 0 .661-.073.182-.133.034-.133-.33zm7.652-.155c.013-.308.075-.37.16-.16.076.191.067.42-.021.508-.088.088-.15-.069-.14-.348zm-25.115-.374c0-.364.06-.513.134-.331.073.182.073.48 0 .661-.074.182-.134.033-.134-.33zm3.684.11c.012-.308.075-.371.16-.16.076.19.066.42-.021.507-.088.088-.15-.068-.14-.347zm8.202 0c.012-.308.075-.371.16-.16.076.19.067.42-.021.507-.088.088-.15-.068-.14-.347zm11.927-.11c0-.364.06-.513.133-.331.074.182.074.48 0 .661-.073.182-.133.033-.133-.33zm-5.577-.155c.012-.308.075-.37.16-.16.076.191.067.42-.021.507-.088.088-.15-.068-.14-.347zm-32.221-1.168c0-.8.05-1.128.11-.728.06.4.06 1.055 0 1.455-.06.4-.11.073-.11-.727zm24.878-.397c.001-1.019.05-1.403.107-.854.057.549.056 1.382-.003 1.852-.058.47-.105.02-.104-.998zm-18.078.941c0-.638.147-.703.357-.156.082.214.035.459-.104.545-.14.086-.253-.089-.253-.389zm32.585-.015c0-.364.06-.513.134-.331.073.182.073.48 0 .661-.074.182-.134.034-.134-.33zm-49.256.068c.508-.061 1.012-.25 1.12-.42.13-.203.198-.15.2.153.004.376-.208.455-1.12.421-1.071-.04-1.08-.048-.2-.154zm41.564-.068c.008-.219.117-.635.242-.926l.228-.53.014.53c.008.29-.1.707-.242.926-.228.353-.255.353-.242 0zm6.37-.53c0-.363.06-.512.133-.33.073.182.073.48 0 .661-.074.182-.134.033-.134-.33zm-12.436-.264c0-.364.06-.513.133-.33.074.181.074.479 0 .66-.073.183-.133.034-.133-.33zm3.44 0c0-.364.06-.513.133-.33.073.181.073.479 0 .66-.073.183-.133.034-.133-.33zm5.537-.265c.008-.218.117-.635.242-.926l.227-.529.015.53c.008.29-.101.707-.242.925-.228.353-.255.353-.242 0zm5.025-.154c.013-.308.075-.37.16-.16.076.191.067.42-.021.507-.088.088-.15-.068-.139-.347zm-64.629-.026c.191-.077.42-.067.507.02.088.088-.068.151-.347.14-.308-.013-.37-.076-.16-.16zm2.894.006c.182-.074.48-.074.661 0 .182.073.034.133-.33.133s-.513-.06-.331-.133zm11.993-.244c.013-.308.076-.37.16-.16.077.191.067.42-.02.507-.089.088-.151-.068-.14-.347zm27.812-.772c.006-.436.065-.583.132-.325.067.257.063.614-.01.793-.072.18-.127-.031-.122-.468zm3.43.133c0-.364.06-.513.133-.331.074.182.074.48 0 .661-.073.182-.133.033-.133-.33zm17.177.11c.013-.308.075-.371.16-.16.076.191.067.42-.021.507-.088.088-.15-.068-.139-.347zm-66.767-.517c-.543-.369-.987-.734-.987-.812 0-.077.327.088.727.366.4.28.966.64 1.257.804.291.163.408.3.26.305-.148.004-.714-.294-1.257-.663zm13.058.539c.028-.501.469-1.345.484-.926.008.218-.1.575-.242.794-.14.218-.25.277-.242.132zm29.398-.53c.005-.436.065-.582.132-.325.067.257.063.615-.01.794-.072.179-.127-.032-.122-.468zm11.346.243c.013-.308.076-.37.16-.16.077.191.067.42-.02.508-.088.087-.151-.069-.14-.348zm3.46-.11c0-.364.061-.513.134-.33.074.181.074.479 0 .66-.073.183-.133.034-.133-.33zm.53 0c0-.364.06-.513.134-.33.073.181.073.479 0 .66-.074.183-.134.034-.134-.33zm-47.534-.794c.568-.582 1.093-1.058 1.165-1.058.073 0-.332.476-.9 1.058-.57.582-1.094 1.059-1.167 1.059-.072 0 .333-.477.902-1.059zm58.097.64c.012-.309.075-.371.16-.16.076.19.066.419-.021.507-.088.088-.15-.068-.14-.347zm-46.038-.023a4.363 4.363 0 0 0-.173-.793c-.145-.461-.137-.462.15-.012.168.26.246.617.174.794-.094.231-.136.234-.15.011zm40.481-.242c.013-.308.076-.37.16-.16.077.191.067.42-.02.507-.089.088-.151-.068-.14-.347zm-34.416-.258c0-.227.12-.338.268-.246.148.091.2.277.117.412-.227.367-.385.299-.385-.166zm8.774-.26c-.443-.973-.359-1.18.12-.296.224.413.358.8.297.86-.06.061-.248-.193-.417-.564zm29.897-.121c0-.364.06-.513.133-.331.073.182.073.48 0 .661-.073.182-.133.034-.133-.33zm-20.68.1c0-.45.994-1.227 1.374-1.074.231.092.197.145-.102.16-.246.01-.633.285-.86.608-.226.323-.412.461-.412.306zm2.457-.55c-.322-.335-.49-.609-.372-.609.258 0 1.221 1.03 1.067 1.14-.06.043-.373-.196-.695-.53zm4.179.295c.012-.308.075-.37.16-.16.076.192.067.42-.021.508-.088.088-.15-.069-.14-.348zm10.604-.11c0-.364.06-.512.133-.33.074.181.074.479 0 .66-.073.183-.133.034-.133-.33zm-65.683-.463c-1.166-1.301-1.648-1.918-1.496-1.918.081 0 .647.595 1.256 1.323 1.172 1.4 1.344 1.826.24.595zm44.762.463c-.008-.218.1-.575.242-.794.312-.483.312-.065 0 .662-.15.349-.233.394-.242.132zm10.867-.265c0-.364.06-.513.133-.33.074.181.074.479 0 .66-.073.183-.133.034-.133-.33zm15.06.11c.013-.308.076-.37.16-.16.076.191.067.42-.02.508-.089.087-.151-.069-.14-.348zm-40.187-1.375c-.044-1.453-.126-1.693-.646-1.902-.403-.162-.456-.244-.164-.256.766-.03 1.056.66.956 2.276l-.096 1.544zm28.566 1c0-.363.06-.512.134-.33.073.182.073.48 0 .661-.074.182-.134.033-.134-.33zm5.536-.154c.012-.308.075-.37.16-.16.076.191.067.42-.021.507-.088.088-.15-.068-.14-.347zm-58.28-.026c.192-.077.42-.067.508.02.088.088-.068.151-.347.14-.308-.013-.371-.076-.16-.16zm2.382 0c.191-.077.42-.067.507.02.088.088-.068.151-.347.14-.308-.013-.37-.076-.16-.16zm.843-.188c0-.057.185-.175.411-.262.236-.09.342-.046.25.104-.156.252-.66.372-.66.158zm4.418-.819c.242-.507.487-.876.544-.818.121.12-.682 1.74-.863 1.74-.067 0 .077-.414.319-.922zm46.424.394c0-.364.06-.513.134-.331.073.182.073.48 0 .661-.074.182-.134.033-.134-.33zm8.975.11c.013-.308.076-.371.16-.16.077.191.067.42-.02.507-.089.088-.151-.068-.14-.347zm-3.418-.375c0-.364.06-.513.133-.33.073.181.073.479 0 .66-.073.183-.133.034-.133-.33zm5.006.11c.012-.308.075-.37.16-.16.076.191.067.42-.021.508-.088.087-.15-.069-.14-.348zm-59.666-.664c.426-.523.828-.906.894-.851.065.054-.283.482-.775.95l-.893.852zm12.305.642a4.363 4.363 0 0 0-.173-.794c-.145-.46-.137-.461.151-.012.167.26.245.618.173.794-.094.232-.136.235-.15.012zm14.574-.496c-.443-.973-.358-1.18.121-.296.224.413.358.8.297.86-.06.061-.248-.193-.418-.564zm17.197.143c0-.363.06-.512.134-.33.073.182.073.48 0 .661-.074.182-.134.033-.134-.33zm3.44 0c0-.363.06-.512.133-.33.074.182.074.48 0 .661-.073.182-.133.033-.133-.33zm5.556-.264c0-.364.06-.513.133-.33.074.181.074.479 0 .66-.073.183-.133.034-.133-.33zm-61.834-.86-1.046-1.124 1.124 1.045c1.046.973 1.246 1.203 1.046 1.203-.043 0-.55-.506-1.124-1.124zm16.02.677c0-.441 1.269-1.468 1.634-1.322.24.096.21.147-.094.161-.244.012-.69.335-.992.718-.302.384-.549.583-.549.443zm51.085-.236c.013-.308.075-.37.16-.16.076.191.067.42-.021.507-.088.088-.15-.068-.14-.347zm-16.459-.309c-.33-.42-.32-.429.1-.1.255.2.463.408.463.463 0 .218-.217.078-.563-.363zm18.087-.33c0-.51.054-.718.12-.463.067.254.067.67 0 .926-.066.254-.12.046-.12-.463zm-73.616-.53c-.297-.582-.48-1.058-.407-1.058.072 0 .375.476.672 1.058.297.583.48 1.059.407 1.059-.072 0-.375-.476-.672-1.059zm68.527.81c0-.137.118-.322.262-.41.15-.094.194.013.104.248-.176.459-.366.542-.366.162zm-38.847-.44c.237-.237.558-.387.713-.334.155.053-.04.247-.431.431-.66.309-.68.302-.282-.097zm28.31 0c.237-.237.558-.387.713-.334.155.053-.039.247-.431.431-.659.309-.68.302-.282-.097zm2.335.005c-.445-.247-.52-.368-.23-.37.236-.003.578.174.76.392.386.466.346.464-.53-.022zm-49.526-.026c.19-.077.419-.067.507.02.088.089-.069.151-.348.14-.308-.013-.37-.076-.16-.16zm28.756-.084c-.43-.185-.446-.23-.081-.246.246-.01.52.1.61.246.189.304.18.304-.529 0zm14.95 0c-.239-.154-.272-.258-.082-.26a.615.615 0 0 1 .478.26c.203.328.112.328-.397 0zm-45.668-.758c-.567-.417-1.328-1.101-1.69-1.521-.466-.542-.35-.483.397.203.58.531 1.472 1.215 1.981 1.52.51.305.795.554.635.555-.16 0-.755-.34-1.323-.757zm15.455.577c.191-.076.42-.067.507.021.088.088-.068.15-.347.14-.308-.014-.37-.076-.16-.16zm12.684.006c.182-.074.48-.074.661 0 .182.073.033.133-.33.133-.364 0-.513-.06-.331-.133zm6.895-.006c.191-.076.42-.067.508.021.088.088-.069.15-.348.14-.308-.014-.37-.076-.16-.16zm20.109 0c.19-.076.419-.067.507.021.088.088-.068.15-.347.14-.309-.014-.371-.076-.16-.16zm-12.32-.273c.4-.06 1.055-.06 1.455 0 .4.06.073.11-.727.11-.8 0-1.128-.05-.728-.11zm-36.82-.207c.027-.502.468-1.346.483-.926.008.218-.1.575-.242.793-.14.219-.25.278-.241.133zm-11.327-.463c-.396-.513-.646-.993-.516-.993.065 0 .312.298.55.662.447.68.422.92-.034.33zm8.725-.596c.003-.582.057-.789.12-.46.064.33.061.806-.005 1.059-.066.253-.118-.017-.115-.599zm8.07.199c.343-.328.766-.592.94-.588.174.005.078.14-.213.302a11.72 11.72 0 0 0-.94.587c-.225.162-.129.026.214-.301zm52.744.12c-.335-.557-.33-.563.126-.127.263.252.42.514.35.584-.069.07-.284-.136-.476-.457zm-18.746.153c.4-.06 1.055-.06 1.455 0 .4.06.073.11-.727.11-.8 0-1.128-.05-.728-.11zm-26.045-.256c.191-.076.42-.067.507.021.088.088-.068.15-.347.14-.308-.013-.371-.076-.16-.16zm1.306.006c.182-.074.48-.074.662 0 .182.073.033.133-.33.133-.365 0-.513-.06-.332-.133zm7.69-.006c.19-.076.42-.067.507.021.088.088-.068.15-.347.14-.308-.013-.371-.076-.16-.16zm5.292 0c.19-.076.419-.067.507.021.088.088-.069.15-.348.14-.308-.013-.37-.076-.16-.16zm1.041.006c.182-.074.48-.074.662 0 .182.073.033.133-.33.133-.365 0-.514-.06-.332-.133zm3.721-.006c.191-.076.42-.067.507.021.088.088-.068.15-.347.14-.308-.013-.371-.076-.16-.16zm1.323 0c.191-.076.42-.067.507.021.088.088-.068.15-.347.14-.308-.013-.371-.076-.16-.16zm-30.886-.502c.013-.309.076-.371.16-.16.077.19.067.419-.02.507-.089.088-.151-.069-.14-.347zm9.68.242c-.096-.097-.176-2.234-.176-4.749V87.34l-1.389-.097-1.389-.097 1.51-.05 1.51-.048.078 4.895c.042 2.692.067 4.895.055 4.895-.012 0-.101-.08-.198-.177zm17.42-6.306c0-3.537.088-6.376.198-6.309.109.068.198 2.907.198 6.31 0 3.402-.09 6.24-.198 6.308-.11.068-.199-2.771-.199-6.309zm1.576 6.2c-.096-.155-.118-.339-.049-.408.07-.07.197.058.283.282.18.466.027.548-.234.126zm3.186-6.2c0-3.537.089-6.376.198-6.309.26.16.26 12.458 0 12.618-.11.068-.198-2.771-.198-6.309zm8.07 6.379c0-.058.184-.175.41-.262.235-.09.342-.046.249.104-.155.251-.66.372-.66.158zm-35.124-.615c.4-.06 1.055-.06 1.455 0 .4.06.073.11-.727.11-.8 0-1.128-.05-.728-.11zm8.46-4.375-.06-4.696 1.39.048 1.389.047-1.251.1-1.25.098-.08 4.55-.079 4.55zm7.443 2.315c-.001-1.31.044-1.878.1-1.264.055.614.055 1.685 0 2.38-.054.696-.1.194-.1-1.116zm20.279 2.15c0-.055.208-.264.463-.464.42-.329.429-.32.1.1-.346.441-.563.581-.563.363zm4.161-.092c.47-.058 1.303-.059 1.852-.002.55.058.165.105-.854.107-1.019 0-1.468-.046-.998-.105zm5.435.008c.257-.067.615-.063.794.01.179.072-.032.127-.468.122-.437-.006-.583-.065-.326-.132zm3.054.003c.191-.077.42-.067.507.02.088.088-.068.15-.347.14-.308-.013-.37-.076-.16-.16zm-55.94-3.392c0-1.746.042-2.426.094-1.51.052.915.052 2.343 0 3.174-.053.832-.095.083-.095-1.664zm35.414 2.25c0-.51.054-.718.12-.464.067.255.067.672 0 .926-.066.255-.12.047-.12-.463zm-52.164.11c.013-.309.076-.371.16-.16.077.19.067.419-.02.507-.089.088-.151-.068-.14-.347zm19.315 0c.013-.309.075-.371.16-.16.076.19.067.419-.021.507-.088.088-.15-.068-.14-.347zm-11.854-.177c-.396-.513-.646-.992-.516-.992.064 0 .312.298.55.662.447.68.422.92-.034.33zm19.073-2.447c.001-1.455.045-2.017.099-1.248.054.769.053 1.96-.001 2.646-.055.686-.098.057-.098-1.398zm-26.798 1.565c.012-.308.075-.37.16-.16.076.191.067.42-.021.508-.088.088-.15-.069-.14-.348zm61.648 0c.012-.308.075-.37.16-.16.076.191.066.42-.021.508-.088.088-.15-.069-.14-.348zm1.873-.11c0-.364.06-.513.133-.33.073.181.073.479 0 .66-.073.183-.133.034-.133-.33zm-60.082-.154c.013-.308.076-.371.16-.16.077.19.067.42-.02.507-.089.088-.151-.068-.14-.347zm51.523-.027c.191-.076.42-.067.508.021.088.088-.069.15-.348.14-.308-.014-.37-.076-.16-.16zm2.788.01c.357-.104.455-.32.364-.8-.081-.424-.035-.566.13-.4.41.409.119 1.228-.457 1.287-.46.047-.466.036-.037-.088zm-44.906-.5c-.256-.666-.18-.838.132-.301.154.265.225.538.157.606-.069.069-.199-.07-.29-.306zm7.07-1.578c0-1.164.047-1.607.103-.985.055.622.055 1.575-.002 2.117-.057.541-.103.032-.102-1.132zm33.643 1.72c-.349-.15-.394-.232-.132-.242.218-.008.575.1.793.242.484.312.066.312-.661 0zm-53.801-.53c0-.363.06-.512.133-.33.074.182.074.48 0 .661-.073.182-.133.034-.133-.33zm3.419-.154c.012-.308.075-.37.16-.16.076.192.067.42-.021.508-.088.088-.15-.069-.14-.348zm60.325-1.058c.012-.308.075-.37.16-.16.076.191.067.42-.021.507-.088.088-.15-.068-.14-.347zm-51.45-.253c-.255-.665-.18-.837.132-.3.154.265.225.538.157.606-.068.068-.198-.07-.289-.306zm-12.507-2.106c0-1.31.044-1.879.1-1.265.055.614.056 1.686.001 2.381-.054.696-.1.194-.1-1.116zm3.442-.132c0-1.383.044-1.948.099-1.257.054.691.054 1.822 0 2.513-.055.692-.1.126-.1-1.256zm58.289 1.675a.729.729 0 0 1-.176-.45c0-.165.123-.15.313.04.172.172.251.375.176.45-.075.075-.216.057-.313-.04zm1.377-1.08c-.329-.42-.32-.43.1-.1.44.346.581.563.363.563-.055 0-.263-.208-.463-.463zm-3.273-.473c-.437-.2-.608-.369-.382-.375.227-.007.644.163.926.376.628.475.494.475-.544 0zm-48.897-1.326c-.971-1.981-.881-2.216.111-.291.44.851.755 1.592.7 1.646-.053.054-.419-.556-.81-1.355zm15.377 1.287c.191-.076.42-.067.507.021.088.088-.068.15-.347.14-.308-.013-.37-.076-.16-.16zm26.53-.238c.012-.308.075-.37.159-.16.076.191.067.42-.02.507-.089.088-.151-.068-.14-.347zm-27.96-.44-.504-.596.661.526c.364.29.711.558.772.596.06.038-.01.069-.158.069-.147 0-.494-.268-.771-.596zm-19.401-.089c.012-.308.075-.37.16-.16.076.191.067.42-.021.507-.088.088-.15-.068-.14-.347zm15.081 0c.013-.308.075-.37.16-.16.076.191.067.42-.021.507-.088.088-.15-.068-.139-.347zm42.217-.242c.611-1.045.625-1.06.625-.735 0 .153-.246.56-.545.904l-.545.624zm-45.626-.265c.005-.437.065-.583.132-.326.067.258.063.615-.01.794-.072.18-.127-.031-.122-.468zm23.184-1.695c-.046-1.297.005-2.302.114-2.234.11.068.198 1.063.198 2.212v2.087l1.522.096 1.521.095-1.635.05-1.635.05zm-35.1 1.034c0-.364.06-.513.133-.331.074.182.074.48 0 .661-.073.182-.133.033-.133-.33zm15.569.359c0-.142.185-.49.411-.772.388-.484.394-.476.097.148-.386.81-.508.96-.508.624zm35.462.004c-.013-.471.713-.948 1.236-.813.381.1.36.13-.107.154-.32.017-.703.24-.851.494-.149.255-.274.329-.278.165zm4.904-.441c.099-.261.247-.408.328-.326.082.081 0 .295-.18.474-.262.26-.292.23-.148-.148zm-37.12-.98c0-.656.052-.924.115-.596a3.77 3.77 0 0 1 0 1.19c-.063.328-.114.06-.114-.595zm28.79.639c.012-.309.075-.371.159-.16.076.19.067.419-.02.507-.089.088-.151-.068-.14-.347zm5.485-.027c.19-.076.42-.067.507.021.088.088-.068.15-.347.14-.308-.014-.371-.076-.16-.16zm5.149-.877c0-.655.051-.923.114-.596a3.77 3.77 0 0 1 0 1.19c-.063.328-.114.06-.114-.594zm-46.588.132c.006-.437.065-.583.132-.326.067.258.063.615-.01.794-.072.18-.127-.032-.122-.468zm9.017-.662c0-.654.051-.922.114-.595a3.77 3.77 0 0 1 0 1.19c-.063.328-.114.06-.114-.595zm10.319 0c0-.654.051-.922.114-.595a3.77 3.77 0 0 1 0 1.19c-.063.328-.114.06-.114-.595zm25.389.265c0-.51.054-.718.12-.463.067.255.067.671 0 .926-.066.255-.12.046-.12-.463zm-56.598-1.058c0-.946.048-1.333.107-.86a8.421 8.421 0 0 1 0 1.72c-.059.473-.107.086-.107-.86zm-4.805.793c0-.363.06-.512.133-.33.074.182.074.48 0 .661-.073.182-.133.033-.133-.33zm3.44 0c0-.363.06-.512.133-.33.073.182.073.48 0 .661-.073.182-.133.033-.133-.33zm5.646-.793c-.368-.728-.61-1.323-.538-1.323.073 0 .434.595.803 1.323.369.727.61 1.323.538 1.323-.073 0-.434-.596-.803-1.323zm44.053.975c0-.045.387-.432.86-.86l.86-.777-.777.86c-.724.802-.943.982-.943.777zm-34.873-1.108c.005-.436.065-.583.132-.325.067.257.062.614-.01.793-.073.18-.127-.031-.122-.468zm1.79-.463c1.096-1.168 1.333-1.378 1.333-1.18 0 .043-.565.609-1.256 1.258l-1.257 1.18zm-3.642-.066c.005-.436.065-.583.132-.325.067.257.062.614-.01.793-.073.18-.127-.031-.122-.468zm46.18-.2-.466-.858.533.625c.453.531.696 1.099.466 1.093-.036 0-.276-.388-.533-.86zm-58.646-.351c.013-.308.075-.37.16-.16.076.191.067.42-.021.507-.088.088-.15-.068-.14-.347zm24.651.222a73.691 73.691 0 0 1 4.63 0c1.274.048.232.088-2.315.088-2.546 0-3.588-.04-2.315-.088zm9.393.01a3.77 3.77 0 0 1 1.19 0c.328.063.06.115-.595.115s-.922-.052-.595-.115zm6.615 0a3.77 3.77 0 0 1 1.19 0c.328.063.06.115-.595.115s-.923-.052-.595-.115zm4.762 0a3.77 3.77 0 0 1 1.19 0c.328.063.06.115-.595.115-.654 0-.922-.052-.595-.115zm6.631.006c.191-.076.42-.067.507.021.088.088-.068.15-.347.14-.308-.014-.37-.076-.16-.16zm3.175 0c.191-.076.42-.067.507.021.088.088-.068.15-.347.14-.308-.014-.37-.076-.16-.16zm-40.675-.503c.013-.308.075-.37.16-.16.076.192.067.42-.021.508-.088.088-.15-.069-.14-.348zm34.482.114c-.115-.187-.073-.234.109-.122.163.102.652 0 1.086-.223 1.137-.588 1.387-.482.285.121-1.1.603-1.233.623-1.48.224zm-36.812-1.547c0-.655.051-.922.114-.595a3.77 3.77 0 0 1 0 1.19c-.063.328-.114.06-.114-.595zm26.188.605c.4-.061 1.055-.061 1.455 0 .4.06.073.11-.728.11-.8 0-1.128-.05-.727-.11zm3.853.008c.19-.076.419-.067.507.021.088.088-.069.15-.348.14-.308-.014-.37-.076-.16-.16zm2.237-.002c.258-.067.615-.063.794.01.179.072-.032.127-.468.121-.437-.005-.583-.064-.326-.131zm2.773.008c.182-.074.48-.074.662 0 .182.073.033.133-.331.133s-.513-.06-.33-.133zm8.748-.006c.191-.076.42-.067.507.021.088.088-.068.15-.347.14-.308-.014-.371-.076-.16-.16zm-2.53-.273c.4-.06 1.055-.06 1.455 0 .4.06.073.11-.727.11-.8 0-1.128-.05-.728-.11zm-34.268-.373c.18-.18.393-.262.474-.18.082.081-.065.23-.326.329-.377.143-.407.113-.148-.149zm18.062-.083c0-.21.108-.448.24-.53.132-.081.178.09.102.381-.162.618-.342.696-.342.149zm-16.933-.413c.218-.14.516-.256.661-.256.146 0 .086.115-.132.256-.218.141-.516.257-.661.257-.146 0-.086-.116.132-.257zm-5.027-.249c0-.137.117-.322.261-.41.15-.093.195.013.104.249-.176.458-.365.542-.365.161zm6.3-.196c.191-.077.42-.067.507.02.088.089-.068.151-.347.14-.308-.013-.37-.076-.16-.16zm1.058-.265c.191-.076.42-.067.508.021.088.088-.069.15-.348.14-.308-.014-.37-.076-.16-.16zm1.323-.264c.191-.077.42-.067.508.02.087.088-.069.151-.348.14-.308-.013-.37-.076-.16-.16zm2.501-.274c.402-.06.998-.06 1.323.004.325.062-.004.112-.731.11-.728-.002-.994-.053-.592-.114zm-14.523-2.853c0-1.6.044-2.221.097-1.38a26.65 26.65 0 0 1-.001 2.911c-.053.759-.096.07-.096-1.53zm17.83 2.591c.329-.063.805-.06 1.058.005.253.067-.016.118-.598.115-.582-.002-.79-.057-.46-.12zm-13.696-.177c0-.055.209-.264.464-.463.42-.33.429-.32.1.1-.346.44-.564.58-.564.363zm16.074-.076c.182-.073.48-.073.661 0 .182.074.033.134-.33.134-.364 0-.513-.06-.331-.134zm1.587-.264c.182-.074.48-.074.662 0 .182.073.033.133-.33.133-.365 0-.513-.06-.332-.133zm1.34-.27c.19-.077.42-.067.507.02.088.089-.068.151-.347.14-.308-.013-.371-.076-.16-.16zm-36.984-.216c0-.146.115-.444.256-.662.141-.218.257-.278.257-.132 0 .145-.116.443-.257.661-.14.219-.256.278-.256.133zm38.042-.049c.191-.076.42-.067.507.021.088.088-.068.15-.347.139-.308-.013-.37-.075-.16-.16zm-18.074-1.407c.717-.727 1.362-1.323 1.435-1.323.073 0-.454.596-1.17 1.323-.717.728-1.363 1.323-1.436 1.323-.073 0 .454-.595 1.17-1.323zm-16.415.777c-.096-.156-.118-.34-.048-.409.069-.07.196.058.282.282.18.467.027.549-.234.127zm42.476.212c0-.059.506-.508 1.125-1 .618-.491.956-.684.75-.429-.386.482-1.875 1.616-1.875 1.429zm-4.211-.824c.27-.245 2.36-1.22 2.36-1.101 0 .15-1.998 1.201-2.283 1.201-.103 0-.138-.045-.077-.1zm6.593-1.306c0-.045.387-.432.86-.86l.86-.777-.778.86c-.724.802-.942.982-.942.777zm-26.723-.281c0-.055.208-.264.463-.463.42-.33.429-.32.1.1-.346.44-.563.58-.563.363zm-19.537-.838c-.443-.973-.358-1.18.121-.296.224.413.358.8.297.861-.06.06-.248-.194-.418-.565zm43.481.144c.264-.291.539-.53.612-.53.072 0-.084.239-.347.53-.263.29-.538.529-.611.529-.073 0 .083-.238.346-.53zm-22.092-.643c0-.073.238-.26.529-.416.291-.155.53-.223.53-.15 0 .072-.239.26-.53.415-.291.156-.53.224-.53.15zm23.548-.548c.341-.364.68-.661.753-.661.073 0-.147.297-.489.661-.342.364-.68.662-.753.662-.073 0 .147-.298.489-.662zM-61.673 74c.41-.515 2.406-2.144 2.406-1.965 0 .063-.625.635-1.389 1.272s-1.222.95-1.017.693zm31.775.248c0-.055.208-.263.463-.463.42-.33.43-.32.1.1-.346.44-.563.58-.563.363zm-35.917-1.355c.003-.582.058-.79.12-.46.064.329.062.805-.004 1.058-.067.253-.118-.016-.115-.598zm10.782.812c0-.073.238-.26.529-.415.29-.156.529-.224.529-.151 0 .072-.238.26-.53.415-.29.156-.528.224-.528.151zm-23.648-.823c-.255-.665-.18-.837.132-.3.154.265.225.538.157.607-.068.068-.198-.07-.289-.307zm49.841-.122c.156-.29.343-.529.416-.529.073 0 .005.238-.151.53-.156.29-.343.529-.415.529-.073 0-.005-.239.15-.53zm-2.646-.463c.346-.473.67-.86.721-.86.201 0-.455.993-.889 1.345-.286.232-.222.047.168-.485zm-50.634-.473c-.256-.665-.18-.837.131-.3.155.265.226.538.157.606-.068.068-.198-.07-.288-.306zm2.91-.264c-.255-.666-.18-.837.132-.301.154.265.225.539.157.607-.068.068-.198-.07-.289-.306zm51.049.065c.1-.261.247-.408.329-.327.081.082 0 .295-.181.475-.261.259-.292.229-.148-.148zm-22.639-.188c.218-.14.516-.256.661-.256.146 0 .086.115-.132.257-.218.14-.516.256-.661.256-.146 0-.086-.115.132-.257zm-14.796-.418c.013-.309.076-.371.16-.16.077.19.067.419-.02.507-.089.088-.151-.069-.14-.347zm-8.202-.265c.013-.308.076-.37.16-.16.076.191.067.42-.02.507-.089.088-.151-.068-.14-.347zm24.25.122c.18-.181.393-.263.475-.181.081.081-.066.23-.327.329-.377.143-.407.113-.148-.148zm19.305-.626c.242-.507.487-.876.544-.818.121.12-.682 1.74-.863 1.74-.067 0 .077-.414.319-.922zm-40.875-2.252c-.014-1.904.063-2.835.203-2.488.123.305.133 1.674.02 3.043l-.203 2.488zm14.497 2.267c0-.072.238-.26.53-.415.29-.156.528-.224.528-.15 0 .072-.238.259-.529.415-.29.155-.529.223-.529.15zm-11.61-1.275c-.017-.691.088-1.257.233-1.257.298 0 .298.55 0 1.72-.18.709-.205.659-.233-.463zm2.9.706c.013-.309.075-.371.16-.16.076.19.067.419-.021.507-.088.088-.15-.068-.14-.347zm17.728.317c.27-.249 5.005-2.536 5.005-2.417 0 .147-4.646 2.519-4.934 2.519-.1 0-.132-.046-.07-.102zm-29.614-1.64c-.17-.844-.203-1.664-.077-1.89.146-.26.274.233.37 1.418.08 1 .115 1.85.076 1.89-.038.039-.205-.6-.37-1.419zm3.07-.11c-.108-.8-.182-2.587-.165-3.97l.031-2.513.239 1.852c.131 1.019.206 2.805.165 3.969l-.074 2.117zm18.85 1.204c0-.073.356-.317.793-.543.436-.226.794-.351.794-.278 0 .073-.358.317-.794.543-.437.225-.794.35-.794.278zm28.33-.83c.013-.308.076-.37.16-.16.077.191.067.42-.02.508-.089.088-.151-.069-.14-.348zm-56.091-.264c.012-.308.075-.371.16-.16.076.19.067.42-.021.507-.088.088-.15-.068-.14-.347zm22.468-.375c.156-.291.343-.53.416-.53.073 0 .005.239-.151.53-.156.291-.343.53-.415.53-.073 0-.005-.239.15-.53zm-19.802-.53c0-.363.06-.512.134-.33.073.182.073.48 0 .661-.074.182-.134.034-.134-.33zm15.577.398c0-.146.116-.444.257-.662.14-.218.256-.278.256-.132 0 .145-.115.443-.256.661-.141.219-.257.278-.257.133zm38.113-.287c.013-.308.075-.37.16-.16.076.191.067.42-.021.507-.088.088-.15-.068-.139-.347zm-56.6-.375c0-.364.06-.512.133-.33.074.181.074.479 0 .66-.073.183-.133.034-.133-.33zm31.444.406c0-.073.595-.434 1.323-.803.727-.368 1.322-.61 1.322-.538 0 .073-.595.434-1.322.803-.728.369-1.323.61-1.323.538zm-16.14-.686c0-.3.12-.471.265-.381.145.09.264.335.264.544 0 .21-.119.382-.264.382-.146 0-.265-.245-.265-.545zm26.311.04c.1-.161.56-.476 1.024-.7.783-.38.805-.378.314.02-.804.652-1.557 1.035-1.338.68zm12.634-.421c.006-.437.065-.583.132-.326.067.257.063.615-.01.794-.072.179-.127-.032-.122-.468zm-51.603-.397c0-.364.06-.513.133-.33.074.181.074.479 0 .66-.073.182-.133.034-.133-.33zm13.088-.143c-.091-.236-.158-.569-.149-.739.01-.17.131-.024.27.325.14.348.207.681.149.739-.058.058-.18-.088-.27-.325zm-15.979-.65c0-.51.054-.719.121-.464.067.255.067.671 0 .926s-.121.046-.121-.463zm5.811.131c.005-.436.065-.583.132-.325.067.257.063.614-.01.793-.072.18-.127-.031-.122-.468zm51.353-.529c.002-.727.054-.994.115-.591.06.402.059.997-.004 1.322-.063.326-.113-.003-.11-.73zm-37.627.794c0-.146.17-.562.378-.926s.378-.542.378-.397c0 .146-.17.562-.378.926s-.378.542-.378.397zm24.587-.175a85.747 85.747 0 0 1 1.984-1.825c1.04-.933 1.268-1.078.662-.418a19.026 19.026 0 0 1-1.984 1.825c-.583.449-.88.637-.662.418zm-19.58-.057c0-.055.21-.264.464-.463.42-.33.429-.32.1.1-.346.44-.563.58-.563.363zM-70.76 64.41c-.1-.53-.129-1.018-.064-1.083.065-.064.2.317.299.848.1.531.128 1.018.063 1.083-.064.065-.199-.317-.298-.848zm23.4.822c0-.072.358-.317.794-.542.437-.226.794-.351.794-.279 0 .073-.357.317-.794.543-.436.226-.793.351-.793.278zM-80.9 64.03c0-.51.054-.718.12-.463.067.255.067.672 0 .926-.066.255-.12.046-.12-.463zm13.984.53c-.008-.219.1-.576.242-.794.313-.484.313-.066 0 .661-.15.349-.232.394-.242.132zm8.709-.073c0-.04.922-.963 2.05-2.051l2.05-1.978-1.977 2.05c-1.837 1.905-2.123 2.172-2.123 1.979zm12.7-.306c0-.073.238-.26.529-.415.29-.156.529-.224.529-.151 0 .072-.238.26-.53.415-.29.156-.528.224-.528.151zm-24.85-.57c.012-.308.075-.37.16-.16.076.191.067.42-.021.508-.088.087-.15-.069-.14-.348zm7.52-.375c.225-.436.47-.793.542-.793.073 0-.052.357-.278.793-.226.437-.47.794-.543.794-.072 0 .053-.357.278-.794zm-15.13-1.058c0-.946.049-1.333.107-.86a8.421 8.421 0 0 1 0 1.72c-.058.473-.106.086-.106-.86zm48.915.926c.006-.436.065-.583.132-.326.067.258.063.615-.01.794-.072.18-.127-.031-.122-.468zm-54.733-1.323c.001-1.018.049-1.403.106-.854.057.55.056 1.383-.002 1.852-.058.47-.105.02-.104-.998zm10.009 1.19c0-.363.06-.512.133-.33.074.182.074.48 0 .662-.073.181-.133.033-.133-.331zm29.724.355c.676-.64 2.337-1.724 1.936-1.263-.245.282-.84.737-1.323 1.013-.483.275-.759.387-.613.25zm17.372-.619c0-.364.06-.512.133-.33.074.181.074.48 0 .661-.073.182-.133.033-.133-.33zm-50.526-1.19c.006-.437.065-.584.132-.326.067.257.063.615-.01.794-.072.179-.127-.032-.122-.468zm3.674-.022c.012-.309.075-.371.16-.16.076.19.067.419-.021.507-.088.088-.15-.069-.14-.347zm46.566 0c.013-.309.076-.371.16-.16.077.19.067.419-.02.507-.089.088-.151-.069-.14-.347zm-13.913-.64c1.254-1.467 1.272-1.483.985-.926-.15.291-.611.827-1.025 1.19l-.752.66zm-33.182-.154c.012-.308.075-.371.16-.16.076.191.066.42-.021.507-.088.088-.15-.068-.14-.347zm44.45 0c.012-.308.075-.371.16-.16.076.191.066.42-.021.507-.088.088-.15-.068-.14-.347zm-5.57.022c0-.146.116-.443.257-.662.141-.218.256-.277.256-.132 0 .146-.115.443-.256.662-.141.218-.256.277-.256.132zm-25.54-.662c.264-.29.539-.529.611-.529.073 0-.083.238-.346.53-.264.29-.539.529-.611.529-.073 0 .083-.239.346-.53zm6.747.43c0-.055.208-.264.463-.463.42-.33.429-.32.1.1-.346.44-.563.58-.563.363zm-22.977-.959c0-.364.06-.512.133-.33.074.181.074.48 0 .661-.073.182-.133.033-.133-.33zm-3.95-.529c0-.51.055-.718.122-.463.066.255.066.671 0 .926-.067.255-.121.046-.121-.463zm7.104.375c.013-.308.076-.371.16-.16.076.191.067.42-.02.507-.089.088-.151-.068-.14-.347zm-3.948-.375c0-.364.06-.513.134-.33.073.181.073.479 0 .66-.074.183-.134.034-.134-.33zm8.954.36c0-.143.185-.49.412-.772.388-.485.393-.476.096.147-.385.81-.508.96-.508.624zm-14.755-.89c0-.508.054-.717.121-.462.067.255.067.671 0 .926s-.121.046-.121-.463zm13.97.662c0-.145.115-.443.256-.661.141-.218.257-.278.257-.132 0 .145-.116.443-.257.661-.14.218-.256.278-.256.132zm34.996-1.19c0-.8.05-1.128.11-.728.06.4.06 1.055 0 1.455-.06.4-.11.073-.11-.727zm-29.448.958c0-.055.208-.263.463-.463.42-.329.429-.32.1.1-.346.44-.563.58-.563.363zm4.233.017c0-.045.387-.432.86-.86l.86-.777-.777.86c-.725.802-.943.982-.943.777zm-16.912-.6c.012-.309.075-.371.16-.16.076.19.067.419-.021.507-.088.088-.15-.069-.14-.347zm25.573.121c.18-.18.393-.262.474-.18.082.08-.065.229-.326.328-.377.144-.408.113-.148-.148zm11.773-.496c0-.51.055-.718.121-.463.067.254.067.671 0 .926-.066.254-.12.046-.12-.463zm-10.528-.118c.283-.226.63-.411.772-.411.336 0 .186.122-.624.508-.623.297-.632.291-.148-.097zm-27.612-.301c.013-.308.075-.371.16-.16.076.191.067.42-.021.507-.088.088-.15-.068-.139-.347zm14.796-.243c.342-.364.68-.661.753-.661.073 0-.147.297-.489.661-.341.364-.68.662-.753.662-.073 0 .147-.298.489-.662zm-13.738-.022c.013-.308.076-.37.16-.16.077.191.067.42-.02.508-.089.087-.151-.069-.14-.348zm-4.233-.264c.013-.309.075-.371.16-.16.076.19.067.419-.021.507-.088.088-.15-.068-.139-.347zm23.262-.243c.342-.364.681-.661.754-.661.073 0-.147.297-.489.661-.342.364-.68.662-.754.662-.072 0 .148-.298.49-.662zm-25.908-.022c.013-.308.076-.37.16-.16.076.191.067.42-.02.507-.089.088-.151-.068-.14-.347zm21.41-1.565c.938-.946 1.765-1.72 1.837-1.72.073 0-.634.774-1.572 1.72-.937.946-1.764 1.72-1.837 1.72-.072 0 .635-.774 1.572-1.72zm15.561 1.274c.191-.076.42-.067.507.021.088.088-.068.15-.347.139-.308-.013-.37-.075-.16-.16zm1.059-.264c.19-.077.419-.068.507.02.088.088-.069.15-.348.14-.308-.013-.37-.076-.16-.16zm13.15-.514c-.251-.382-.325-.613-.165-.514.305.189.921 1.208.73 1.208-.061 0-.316-.312-.566-.694zm2.346.364a111.59 111.59 0 0 1-.573-.993c-.362-.635-.36-.64.067-.132.537.64 1 1.455.827 1.455-.07 0-.214-.149-.321-.33zm-53.261-.353c.012-.308.075-.371.16-.16.076.19.067.42-.021.507-.088.088-.15-.068-.14-.347zm39.468.226a11.52 11.52 0 0 1 1.984 0c.546.057.1.104-.992.104-1.091 0-1.538-.047-.992-.104zm-22.688-.601c.263-.291.538-.53.611-.53.073 0-.083.239-.347.53-.263.291-.538.53-.61.53-.073 0 .082-.239.346-.53zm6.482-.926c.342-.364.681-.662.754-.662.073 0-.147.298-.49.662-.341.364-.68.661-.753.661-.073 0 .147-.297.49-.661zm26.69-.066c-.33-.42-.32-.43.1-.1.254.2.462.408.462.463 0 .218-.217.077-.563-.363zm-31.463-.926c1.096-1.168 1.334-1.379 1.334-1.18 0 .043-.566.608-1.257 1.257l-1.257 1.18zm10.594 1.005c0-.072.357-.317.794-.542.436-.226.793-.351.793-.278 0 .072-.357.317-.793.542-.437.226-.794.351-.794.278zm-11.245-1.733c.864-.873 1.63-1.587 1.703-1.587.073 0-.574.714-1.438 1.587s-1.63 1.588-1.703 1.588c-.073 0 .574-.715 1.438-1.588zm34.073 1.257c-.397-.513-.646-.992-.517-.992.065 0 .313.297.551.661.446.68.421.92-.034.33zm-5.386-.662-.641-.727.728.641c.68.6.849.814.641.814-.047 0-.375-.327-.728-.728zm-22.205.364c0-.055.209-.264.464-.463.42-.33.429-.32.1.1-.346.44-.563.58-.563.363zm24.587-.628-.642-.728.728.642c.4.352.728.68.728.727 0 .208-.215.039-.814-.641zm-40.462-.066c.156-.291.343-.53.416-.53.073 0 .005.239-.15.53-.157.29-.344.529-.416.529-.073 0-.005-.238.15-.53zm23.02.132c.363-.208.78-.378.925-.378.146 0-.033.17-.397.378-.363.208-.78.378-.926.378-.145 0 .033-.17.397-.378zm-27.782-.381c0-.137.118-.322.262-.41.15-.094.194.013.104.248-.176.458-.366.542-.366.162zm9.193-.677c.45-.582 1.39-1.594 2.09-2.25.975-.912.876-.757-.424.662-2.326 2.542-2.615 2.817-1.666 1.588zm1.047.273c.262-.36.586-.657.72-.662.135-.005-.035.29-.377.653-.793.845-.954.848-.343.009zm19.129.124c.218-.142.516-.257.661-.257.146 0 .086.115-.132.257-.218.14-.516.256-.662.256-.145 0-.086-.115.133-.256zm11.641-.265c-.509-.279-.83-.512-.714-.518.28-.015 1.773.761 1.773.922 0 .173-.016.167-1.059-.404zm5.788-.199c-.33-.42-.32-.429.1-.1.254.2.462.409.462.464 0 .217-.217.077-.563-.364zm-49.171.067c0-.146.115-.444.256-.662.141-.218.257-.278.257-.132 0 .145-.116.443-.257.661-.14.219-.256.278-.256.133zm19.137-.337c.21-.339 1.757-1.484 1.757-1.3 0 .065-.437.452-.971.86-.535.407-.888.605-.786.44zm14.672.024c.19-.077.419-.067.507.02.088.088-.068.15-.347.14-.309-.013-.371-.076-.16-.16zm11.941-.812-.911-.992.992.912c.546.501.992.948.992.992 0 .202-.224.012-1.073-.912zm-19.565.597c0-.179 2.15-1.248 2.27-1.128.055.055-.433.36-1.085.676-.651.317-1.185.52-1.185.452zm-23.018-.383c0-.137.117-.322.261-.41.15-.093.195.013.104.249-.176.458-.365.542-.365.161zm32.758.068c.191-.076.42-.067.508.021.088.088-.069.15-.348.14-.308-.013-.37-.076-.16-.16zm5.028 0c.19-.076.419-.067.507.021.088.088-.069.15-.348.14-.308-.013-.37-.076-.16-.16zm7.424-.282c-.33-.42-.32-.429.1-.1.254.2.463.408.463.463 0 .218-.218.078-.563-.363zm-10.084.011c.33-.063.806-.06 1.059.006.253.066-.017.118-.599.115-.582-.003-.789-.057-.46-.12zm-29.173-.87c.263-.292.538-.53.611-.53.073 0-.083.238-.347.53-.263.29-.538.528-.61.528-.073 0 .082-.238.346-.529zm-8.07-.265c.156-.291.343-.53.416-.53.072 0 .004.239-.151.53-.156.29-.343.529-.416.529-.073 0-.005-.238.151-.53zm2.91 0c.156-.291.343-.53.416-.53.073 0 .005.239-.15.53-.157.29-.344.529-.416.529-.073 0-.005-.238.15-.53zm17.198.415c0-.073.239-.26.53-.415.29-.156.529-.224.529-.151 0 .073-.238.26-.53.415-.29.156-.529.224-.529.151zm26.425-.35c-.33-.419-.32-.428.1-.1.255.2.463.409.463.464 0 .218-.217.078-.563-.363zm-39.39-.462c.343-.364.682-.662.755-.662.072 0-.148.298-.49.662-.341.364-.68.661-.753.661-.073 0 .147-.297.489-.661zm21.368.485c.182-.073.265-.242.182-.376-.082-.133-.03-.242.115-.242.468 0 .572.469.14.634-.229.088-.496.15-.593.14-.097-.012-.027-.082.156-.156zm-13.827-.618c.264-.29.539-.529.612-.529.072 0-.084.238-.347.53-.263.29-.538.529-.611.529-.073 0 .083-.238.346-.53zm26.182-2.475c-1.594-1.653-3.32-3.35-3.836-3.77-.516-.421-.814-.701-.662-.622.901.47 3.002 2.398 5.149 4.726 1.354 1.469 2.414 2.67 2.355 2.67-.059 0-1.411-1.352-3.006-3.004zm-19.435 2.61c0-.18 2.15-1.249 2.27-1.129.055.056-.433.36-1.085.677-.651.316-1.185.52-1.185.452zm8.092-.1c-.078-.125.53-.363 1.351-.528 2.14-.43 2.304-.348.48.24-1.88.604-1.658.569-1.831.289zm16.093-.63-.504-.595.595.504c.56.474.716.686.504.686-.05 0-.318-.267-.595-.595zm-44.639-.483c.263-.448.647-.954.854-1.125.207-.17.042.196-.366.814-.856 1.3-1.194 1.514-.488.31zm2.463.714c0-.055.208-.263.463-.463.42-.33.429-.32.1.1-.346.44-.563.58-.563.363zm12.285-.4c.189-.306 1.208-.922 1.208-.73 0 .06-.312.315-.694.565-.381.25-.613.324-.514.165zm-7.523-.394c0-.055.209-.263.463-.463.42-.329.43-.32.1.1-.346.44-.563.581-.563.363zm-3.969-.247c0-.046.387-.433.86-.86l.86-.777-.777.86c-.724.801-.943.981-.943.777zm18.786-.182c.218-.141.516-.256.661-.256.146 0 .086.115-.132.256-.218.141-.516.256-.661.256-.146 0-.086-.115.132-.256zm21.538-.33-.504-.596.596.504c.559.474.715.687.504.687-.05 0-.319-.268-.596-.596zm-33.312-.464c.263-.29.538-.529.611-.529.073 0-.083.238-.347.53-.263.29-.538.528-.61.528-.073 0 .082-.238.346-.529zm14.817 0c-.35-.15-.394-.232-.133-.242.219-.008.576.101.794.242.484.313.066.313-.661 0zm-16.177-.204c.209-.339 1.757-1.484 1.757-1.3 0 .065-.437.452-.972.86-.534.407-.887.605-.785.44zm17.235-.06c-.432-.186-.447-.231-.082-.246.246-.01.521.1.611.246.188.304.179.304-.53 0zm-25.003-.083c0-.046.387-.433.86-.86l.86-.777-.778.86c-.724.801-.942.981-.942.777zm15.462-.3c.283-.226.63-.411.772-.411.336 0 .186.122-.624.508-.624.297-.632.291-.148-.097zm10.6.12c-.09-.147.051-.268.314-.27.264-.001.955-.06 1.537-.132.799-.098.896-.075.397.092-1.402.47-2.09.565-2.248.31zm14.786-.982c-.56-.684-.882-1.159-.713-1.054.36.222 2.036 2.299 1.855 2.299-.067 0-.581-.56-1.142-1.245zm-23.386-.078c.219-.141.516-.257.662-.257.145 0 .086.116-.133.257-.218.14-.516.256-.661.256-.146 0-.086-.115.132-.256zm-12.17-.662c.341-.364.68-.661.753-.661.073 0-.147.297-.489.661-.342.364-.68.662-.754.662-.072 0 .148-.298.49-.662zm4.497.548c0-.073.238-.26.53-.415.29-.156.529-.224.529-.151 0 .072-.238.26-.53.415-.29.156-.529.224-.529.151zm11.907-.945c-.342-.22-.335-.257.05-.26.246-.002.521.115.611.26.207.335-.143.335-.661 0zm1.19-.263c-.098-.16.23-.266.822-.266 1.1 0 1.115.107.054.36-.39.095-.785.052-.875-.094zm-20.24-.084c0-.046.387-.432.86-.86l.86-.777-.778.86c-.724.801-.942.981-.942.777zm3.704-.017c0-.055.208-.263.463-.463.42-.33.429-.32.1.1-.346.44-.563.58-.563.363zm32.66-.76-.778-.86.86.777c.473.428.86.815.86.86 0 .204-.218.024-.943-.777zm-26.046.33c.219-.14.516-.256.662-.256.145 0 .086.116-.133.257-.218.14-.515.256-.661.256-.145 0-.086-.115.132-.256zm12.105.09c.182-.073.48-.073.661 0 .182.073.034.133-.33.133s-.513-.06-.331-.133zm-9.723-.354c.218-.141.516-.256.661-.256.146 0 .086.115-.132.256-.219.141-.516.257-.662.257-.145 0-.086-.116.133-.257zm-7.938-.114c0-.072.238-.26.53-.415.29-.156.528-.224.528-.151 0 .073-.238.26-.529.416-.29.155-.529.223-.529.15zm9.525-.68c-.218-.14-.278-.256-.132-.256.145 0 .443.115.661.256.219.141.278.257.133.257-.146 0-.444-.116-.662-.257zm-12.435-.1c0-.055.208-.263.463-.463.42-.329.429-.32.1.1-.346.441-.563.581-.563.363zm4.614-.282c.283-.226.63-.411.772-.411.336 0 .186.122-.624.508-.624.297-.632.291-.148-.097zm8.768.152c-.142-.23 1.346-.571 2.36-.543.39.011-.934.477-2.167.762-.028.006-.115-.093-.193-.22zm19.406-.497-.641-.728.727.642c.4.352.728.68.728.727 0 .208-.215.039-.814-.641zm-5.007-.199c-.655-.35-1.097-.643-.982-.65.281-.015 2.305 1.024 2.305 1.185 0 .175.01.18-1.323-.535zm-26.723.019c0-.073.238-.26.53-.416.29-.155.528-.223.528-.15 0 .072-.238.26-.529.415-.29.156-.529.224-.529.15zm4.957-.184c.179-.18.392-.262.474-.18.081.081-.065.229-.326.328-.377.144-.408.113-.148-.148zm10.587.122c.182-.073.48-.073.662 0 .182.074.033.134-.331.134s-.513-.06-.33-.134zm-9.459-.618c.219-.141.516-.257.662-.257.145 0 .086.116-.132.257-.219.14-.516.256-.662.256-.145 0-.086-.115.132-.256zm23.586-.534c-1.569-1.031-1.735-1.27-.353-.509.626.346 1.266.78 1.421.968.389.468.257.411-1.068-.46zm-5.594.005c-.218-.141-.278-.257-.132-.257.145 0 .443.116.661.257.219.14.278.256.133.256-.146 0-.444-.115-.662-.256zm-15.13-.446c.19-.076.418-.067.506.021.088.088-.068.15-.347.14-.308-.014-.37-.076-.16-.16zm1.058-.264c.19-.077.419-.067.507.02.088.089-.069.151-.348.14-.308-.013-.37-.076-.16-.16zm1.322-.265c.191-.076.42-.067.508.021.088.088-.069.15-.348.139-.308-.013-.37-.075-.16-.16zm9.26 0c.192-.076.42-.067.508.021.088.088-.068.15-.347.139-.308-.013-.371-.075-.16-.16zm-7.42-.27c.328-.064.804-.062 1.057.005.253.066-.016.118-.598.115-.582-.003-.789-.058-.46-.12zm5.155.004c.255-.067.672-.067.926 0 .255.066.047.12-.463.12-.509 0-.717-.054-.463-.12zm9.064-.08c-.092-.15.014-.194.25-.103.458.176.541.365.16.365-.136 0-.32-.117-.41-.261zm-1.192-.531c-.219-.141-.278-.257-.133-.257.146 0 .444.116.662.257.218.14.278.256.132.256-.145 0-.443-.115-.661-.256zm-3.754-1.24c.191-.076.42-.067.507.021.088.088-.068.15-.347.14-.308-.013-.371-.076-.16-.16zm-11.13-.259c.183-.073.48-.073.662 0 .182.074.033.134-.33.134-.364 0-.513-.06-.331-.134zm9.526 0c.182-.073.48-.073.661 0 .182.074.033.134-.33.134-.364 0-.513-.06-.331-.134zm-7.405-.276c.329-.063.805-.06 1.058.005.253.066-.016.118-.598.115-.582-.003-.79-.057-.46-.12zm5.024 0a3.77 3.77 0 0 1 1.19 0c.328.063.06.115-.595.115s-.923-.052-.595-.115z" style="fill:#00aeef;fill-opacity:1" transform="translate(149.845 66.854)"/></svg>